<?xml version="1.0" encoding="UTF-8"?>
<svg version="1.1" xmlns="http://www.w3.org/2000/svg" width="512" height="512">
<path d="M0 0 C130.68 0 261.36 0 396 0 C396 164.67 396 329.34 396 499 C265.32 499 134.64 499 0 499 C0 334.33 0 169.66 0 0 Z " fill="#4D5680" transform="translate(58,6)"/>
<path d="M0 0 C44.55 0 89.1 0 135 0 C135 164.67 135 329.34 135 499 C90.45 499 45.9 499 0 499 C0 334.33 0 169.66 0 0 Z " fill="#80A2FE" transform="translate(58,6)"/>
<path d="M0 0 C16.55433008 13.09317716 29.38520431 31.95753645 31.90234375 53.30078125 C33.59455656 77.89074869 29.25732809 99.47877266 13.15234375 118.93359375 C-0.78639788 134.87659888 -19.46435898 145.58017599 -40.82885742 147.15307617 C-64.70482798 148.06938786 -85.83286701 143.4877244 -103.84765625 126.93359375 C-104.55277344 126.29679688 -105.25789063 125.66 -105.984375 125.00390625 C-120.07397613 111.63891317 -130.13905693 91.57849894 -131.22265625 72.01953125 C-131.73917969 52.25416295 -127.61355088 34.05537278 -115.84765625 17.93359375 C-115.24179687 17.0828125 -114.6359375 16.23203125 -114.01171875 15.35546875 C-87.07070416 -20.49257515 -35.54016275 -25.78977516 0 0 Z " fill="#F2F4F8" transform="translate(372.84765625,55.06640625)"/>
<path d="M0 0 C1.20319885 -0.00761353 2.40639771 -0.01522705 3.64605713 -0.02307129 C6.18426446 -0.0338433 8.72251601 -0.03673725 11.26074219 -0.03222656 C15.1146974 -0.03125653 18.96664535 -0.07286984 22.8203125 -0.1171875 C25.29687089 -0.122397 27.77343613 -0.12508265 30.25 -0.125 C31.38789978 -0.14139526 32.52579956 -0.15779053 33.69818115 -0.17468262 C44.31101256 -0.08444709 53.85862642 3.00768261 61.640625 10.44921875 C66.42014667 15.9648721 70.05395453 22.25072947 71.390625 29.46875 C71.51953125 30.11585938 71.6484375 30.76296875 71.78125 31.4296875 C72.15368577 34.66987873 72.01846243 36.63462312 70.0234375 39.28515625 C51.91879132 56.0751497 28.93680604 59.52870888 5.30712891 58.65527344 C-9.36076115 57.71719642 -25.75383054 50.24671668 -36.93359375 40.6640625 C-39.55438012 37.23077126 -39.56189164 34.4030346 -39.1328125 30.19921875 C-37.01749299 19.16482816 -31.92243476 11.5436213 -22.89453125 4.7578125 C-15.25785015 0.44994111 -8.62829839 0.00151648 0 0 Z " fill="#FED731" transform="translate(307.609375,143.53125)"/>
<path d="M0 0 C1.23715117 -0.00935994 1.23715117 -0.00935994 2.49929529 -0.01890898 C5.26703673 -0.03488257 8.0339028 -0.02221781 10.801651 -0.00964355 C12.78425613 -0.01506278 14.76685723 -0.02218431 16.74945068 -0.03088379 C22.13790755 -0.04914495 27.52605865 -0.04203771 32.91452098 -0.02936745 C38.54964073 -0.01925286 44.18473398 -0.02862897 49.81985474 -0.03491211 C59.28486337 -0.0421936 68.74974724 -0.03258824 78.21473694 -0.0135498 C89.16090014 0.00821355 100.10676528 0.00117339 111.05292124 -0.02085543 C120.44580957 -0.03900258 129.83860812 -0.04157089 139.23150831 -0.03110075 C144.84370882 -0.02486127 150.45576921 -0.02404261 156.06796074 -0.0372467 C161.34493916 -0.04879433 166.62153308 -0.04079913 171.89846992 -0.01766968 C173.83627305 -0.01237653 175.77410849 -0.01390668 177.7118988 -0.02272034 C180.35532704 -0.03363567 182.99751983 -0.0199611 185.64086914 0 C186.40954801 -0.00892289 187.17822688 -0.01784577 187.97019905 -0.02703905 C191.61837953 0.02647282 193.73141996 0.41342946 196.86005497 2.35218048 C198.88392639 4.50793457 198.88392639 4.50793457 199.50892639 7.50793457 C198.88392639 10.50793457 198.88392639 10.50793457 196.86005497 12.66368866 C193.0792275 15.00658999 189.95287675 15.06592328 185.64086914 15.01586914 C184.8145417 15.0221091 183.98821427 15.02834907 183.1368466 15.03477812 C180.36987598 15.05072425 177.6037843 15.03809774 174.83680725 15.0255127 C172.85243211 15.03093305 170.86806099 15.03805523 168.88369751 15.04675293 C163.49536686 15.06499821 158.10734234 15.057914 152.7190063 15.04523659 C147.08342454 15.03511663 141.44786916 15.04449934 135.81228638 15.05078125 C126.3490579 15.05805997 116.88595427 15.04846337 107.42274475 15.02941895 C96.47597281 15.00764355 85.52949879 15.01470561 74.58273405 15.03672457 C65.18899193 15.05486461 55.7953396 15.0574439 46.40158564 15.04696989 C40.78887297 15.04072811 35.17630044 15.03991831 29.56359673 15.05311584 C24.28824954 15.06465359 19.01328731 15.05668648 13.7379818 15.03353882 C11.79975779 15.02824091 9.8615015 15.02978392 7.92329025 15.03858948 C5.28175323 15.04948575 2.64145746 15.03585368 0 15.01586914 C-0.77090959 15.02479203 -1.54181918 15.03371491 -2.33608967 15.04290819 C-5.81649902 14.99166931 -7.76462166 14.76971269 -10.59207821 12.66368866 C-12.67487687 9.7174844 -12.704839 8.04052694 -12.11607361 4.50793457 C-8.84761977 -0.11542764 -5.26447174 -0.06093359 0 0 Z " fill="#7FA2FE" transform="translate(230.11607360839844,303.4920654296875)"/>
<path d="M0 0 C1.23715117 -0.00935994 1.23715117 -0.00935994 2.49929529 -0.01890898 C5.26703673 -0.03488257 8.0339028 -0.02221781 10.801651 -0.00964355 C12.78425613 -0.01506278 14.76685723 -0.02218431 16.74945068 -0.03088379 C22.13790755 -0.04914495 27.52605865 -0.04203771 32.91452098 -0.02936745 C38.54964073 -0.01925286 44.18473398 -0.02862897 49.81985474 -0.03491211 C59.28486337 -0.0421936 68.74974724 -0.03258824 78.21473694 -0.0135498 C89.16090014 0.00821355 100.10676528 0.00117339 111.05292124 -0.02085543 C120.44580957 -0.03900258 129.83860812 -0.04157089 139.23150831 -0.03110075 C144.84370882 -0.02486127 150.45576921 -0.02404261 156.06796074 -0.0372467 C161.34493916 -0.04879433 166.62153308 -0.04079913 171.89846992 -0.01766968 C173.83627305 -0.01237653 175.77410849 -0.01390668 177.7118988 -0.02272034 C180.35532704 -0.03363567 182.99751983 -0.0199611 185.64086914 0 C186.40954801 -0.00892289 187.17822688 -0.01784577 187.97019905 -0.02703905 C191.61837953 0.02647282 193.73141996 0.41342946 196.86005497 2.35218048 C198.88392639 4.50793457 198.88392639 4.50793457 199.50892639 7.50793457 C198.88392639 10.50793457 198.88392639 10.50793457 196.86005497 12.66368866 C193.0792275 15.00658999 189.95287675 15.06592328 185.64086914 15.01586914 C184.8145417 15.0221091 183.98821427 15.02834907 183.1368466 15.03477812 C180.36987598 15.05072425 177.6037843 15.03809774 174.83680725 15.0255127 C172.85243211 15.03093305 170.86806099 15.03805523 168.88369751 15.04675293 C163.49536686 15.06499821 158.10734234 15.057914 152.7190063 15.04523659 C147.08342454 15.03511663 141.44786916 15.04449934 135.81228638 15.05078125 C126.3490579 15.05805997 116.88595427 15.04846337 107.42274475 15.02941895 C96.47597281 15.00764355 85.52949879 15.01470561 74.58273405 15.03672457 C65.18899193 15.05486461 55.7953396 15.0574439 46.40158564 15.04696989 C40.78887297 15.04072811 35.17630044 15.03991831 29.56359673 15.05311584 C24.28824954 15.06465359 19.01328731 15.05668648 13.7379818 15.03353882 C11.79975779 15.02824091 9.8615015 15.02978392 7.92329025 15.03858948 C5.28175323 15.04948575 2.64145746 15.03585368 0 15.01586914 C-0.77090959 15.02479203 -1.54181918 15.03371491 -2.33608967 15.04290819 C-5.81649902 14.99166931 -7.76462166 14.76971269 -10.59207821 12.66368866 C-12.67487687 9.7174844 -12.704839 8.04052694 -12.11607361 4.50793457 C-8.84761977 -0.11542764 -5.26447174 -0.06093359 0 0 Z " fill="#7FA2FE" transform="translate(230.11607360839844,266.4920654296875)"/>
<path d="M0 0 C1.23715117 -0.00935994 1.23715117 -0.00935994 2.49929529 -0.01890898 C5.26703673 -0.03488257 8.0339028 -0.02221781 10.801651 -0.00964355 C12.78425613 -0.01506278 14.76685723 -0.02218431 16.74945068 -0.03088379 C22.13790755 -0.04914495 27.52605865 -0.04203771 32.91452098 -0.02936745 C38.54964073 -0.01925286 44.18473398 -0.02862897 49.81985474 -0.03491211 C59.28486337 -0.0421936 68.74974724 -0.03258824 78.21473694 -0.0135498 C89.16090014 0.00821355 100.10676528 0.00117339 111.05292124 -0.02085543 C120.44580957 -0.03900258 129.83860812 -0.04157089 139.23150831 -0.03110075 C144.84370882 -0.02486127 150.45576921 -0.02404261 156.06796074 -0.0372467 C161.34493916 -0.04879433 166.62153308 -0.04079913 171.89846992 -0.01766968 C173.83627305 -0.01237653 175.77410849 -0.01390668 177.7118988 -0.02272034 C180.35532704 -0.03363567 182.99751983 -0.0199611 185.64086914 0 C186.40954801 -0.00892289 187.17822688 -0.01784577 187.97019905 -0.02703905 C191.61837953 0.02647282 193.73141996 0.41342946 196.86005497 2.35218048 C198.88392639 4.50793457 198.88392639 4.50793457 199.50892639 7.50793457 C198.88392639 10.50793457 198.88392639 10.50793457 196.86005497 12.66368866 C193.0792275 15.00658999 189.95287675 15.06592328 185.64086914 15.01586914 C184.8145417 15.0221091 183.98821427 15.02834907 183.1368466 15.03477812 C180.36987598 15.05072425 177.6037843 15.03809774 174.83680725 15.0255127 C172.85243211 15.03093305 170.86806099 15.03805523 168.88369751 15.04675293 C163.49536686 15.06499821 158.10734234 15.057914 152.7190063 15.04523659 C147.08342454 15.03511663 141.44786916 15.04449934 135.81228638 15.05078125 C126.3490579 15.05805997 116.88595427 15.04846337 107.42274475 15.02941895 C96.47597281 15.00764355 85.52949879 15.01470561 74.58273405 15.03672457 C65.18899193 15.05486461 55.7953396 15.0574439 46.40158564 15.04696989 C40.78887297 15.04072811 35.17630044 15.03991831 29.56359673 15.05311584 C24.28824954 15.06465359 19.01328731 15.05668648 13.7379818 15.03353882 C11.79975779 15.02824091 9.8615015 15.02978392 7.92329025 15.03858948 C5.28175323 15.04948575 2.64145746 15.03585368 0 15.01586914 C-0.77090959 15.02479203 -1.54181918 15.03371491 -2.33608967 15.04290819 C-5.81649902 14.99166931 -7.76462166 14.76971269 -10.59207821 12.66368866 C-12.67487687 9.7174844 -12.704839 8.04052694 -12.11607361 4.50793457 C-8.84761977 -0.11542764 -5.26447174 -0.06093359 0 0 Z " fill="#7FA2FE" transform="translate(230.11607360839844,229.4920654296875)"/>
<path d="M0 0 C1.81692856 -0.01908669 1.81692856 -0.01908669 3.67056274 -0.03855896 C5.0045796 -0.03237717 6.33859454 -0.02577119 7.67260742 -0.01878357 C9.08394268 -0.02584438 10.49527037 -0.03459009 11.90658569 -0.04489136 C15.73307388 -0.06737594 19.55914828 -0.06444821 23.38567734 -0.05556989 C26.58161758 -0.05045706 29.77748026 -0.05775483 32.97341251 -0.06504196 C40.51286166 -0.08203758 48.05210838 -0.07847812 55.59155273 -0.06175232 C63.3676267 -0.0448246 71.14313956 -0.06067483 78.91915226 -0.0929752 C85.59872369 -0.11966913 92.27812042 -0.12694788 98.95773983 -0.11846012 C102.94579969 -0.11353106 106.93352183 -0.11574519 110.92153931 -0.13624763 C114.67120878 -0.15460246 118.42007075 -0.14864975 122.16969681 -0.12404823 C123.54472068 -0.11903985 124.91980607 -0.12253105 126.29478073 -0.13519669 C137.9771006 -0.23428643 137.9771006 -0.23428643 141.32617188 2.82363892 C142.96557617 5.5146637 142.96557617 5.5146637 142.90307617 9.2021637 C141.96557617 12.5146637 141.96557617 12.5146637 139.96557617 14.5146637 C137.4164896 14.76913929 137.4164896 14.76913929 134.12660217 14.77536011 C132.88289352 14.78244492 131.63918488 14.78952972 130.35778809 14.79682922 C128.97192347 14.79453519 127.58605919 14.79202546 126.20019531 14.7893219 C124.74665565 14.79366713 123.29311829 14.79884964 121.83958435 14.80480957 C117.88505633 14.81823151 113.93062369 14.81877469 109.97607732 14.81624627 C106.67822128 14.81517868 103.38038471 14.82005449 100.08253282 14.82485169 C92.30403059 14.83595801 84.52557664 14.83637803 76.74707031 14.83033752 C68.71497349 14.82429611 60.68305177 14.83661036 52.65098482 14.85790759 C45.76177128 14.87550476 38.87261356 14.88152793 31.98337835 14.87826985 C27.86574798 14.87645377 23.74824249 14.8791253 19.6306324 14.89298439 C15.75890432 14.90552753 11.8874498 14.90365226 8.01572609 14.8905735 C6.59309549 14.88820043 5.17044585 14.89096846 3.74783707 14.89919662 C1.8090942 14.90960314 -0.12972608 14.89979494 -2.06846619 14.8888855 C-3.15450606 14.88905324 -4.24054594 14.88922098 -5.35949612 14.88939381 C-8.03442383 14.5146637 -8.03442383 14.5146637 -9.87604618 13.20611858 C-11.87843506 10.28224443 -11.51303247 7.92475024 -11.03442383 4.5146637 C-7.46876442 0.88876618 -5.02552522 0.01342427 0 0 Z " fill="#7EA0FA" transform="translate(286.034423828125,428.48533630371094)"/>
<path d="M0 0 C0.94147888 -0.00960754 1.88295776 -0.01921509 2.85296631 -0.02911377 C3.87376282 -0.03336365 4.89455933 -0.03761353 5.94628906 -0.04199219 C6.99463928 -0.04769226 8.0429895 -0.05339233 9.12310791 -0.05926514 C11.34573352 -0.06872452 13.56837322 -0.07525283 15.79101562 -0.07910156 C19.18417036 -0.08878799 22.57671458 -0.11979511 25.96972656 -0.15136719 C28.12857713 -0.15789908 30.28743203 -0.16314882 32.44628906 -0.16699219 C33.96533844 -0.18551239 33.96533844 -0.18551239 35.51507568 -0.20440674 C41.67917224 -0.18501747 46.3889708 0.29256583 51.10644531 4.69628906 C54.94961069 9.72196686 56.08277322 12.81457253 55.46191406 19.16113281 C53.66999057 25.03465983 51.33036117 27.71264944 46.46191406 31.16113281 C43.61057887 32.11157788 41.77233736 32.30291684 38.81030273 32.33813477 C37.86889938 32.35097 36.92749603 32.36380524 35.95756531 32.37702942 C34.94193008 32.38441635 33.92629486 32.39180328 32.87988281 32.39941406 C31.83294754 32.40748581 30.78601227 32.41555756 29.70735168 32.4238739 C27.49070896 32.437708 25.27404499 32.44843317 23.05737305 32.45629883 C19.67292809 32.47351321 16.28945959 32.51740653 12.90527344 32.56152344 C10.75098374 32.57165045 8.59668575 32.58016653 6.44238281 32.58691406 C5.43282028 32.60442215 4.42325775 32.62193024 3.38310242 32.63996887 C-2.60239799 32.62155292 -5.97295757 32.13051397 -10.53808594 28.16113281 C-14.93701697 23.16775164 -15.89484931 20.25098054 -15.81933594 13.70019531 C-15.26824909 8.72510568 -12.53110893 6.03593878 -8.91308594 2.84863281 C-5.63721126 0.52103765 -3.96326653 0.03259692 0 0 Z " fill="#F2F4F9" transform="translate(105.5380859375,440.8388671875)"/>
<path d="M0 0 C1.3422464 -0.01913956 1.3422464 -0.01913956 2.71160889 -0.03866577 C4.15228729 -0.04200424 4.15228729 -0.04200424 5.62207031 -0.04541016 C6.6184552 -0.05206696 7.61484009 -0.05872375 8.64141846 -0.06558228 C10.74953365 -0.07570258 12.85768085 -0.08039949 14.96582031 -0.08007812 C18.17469864 -0.08443801 21.38218646 -0.12072816 24.59082031 -0.15869141 C26.64289896 -0.1645625 28.69498412 -0.16852993 30.74707031 -0.17041016 C31.69942566 -0.18478119 32.65178101 -0.19915222 33.63299561 -0.21395874 C40.43772591 -0.16781653 46.06399669 1.03482762 51.0980835 5.87490845 C54.590937 9.85472435 55.15567427 13.73571801 54.87207031 18.92724609 C54.01345785 23.7370659 51.40717544 26.42691114 47.88769531 29.60302734 C44.46540675 31.97230404 41.85781177 32.41926599 37.79858398 32.4675293 C36.85718063 32.48036453 35.91577728 32.49319977 34.94584656 32.50642395 C33.93021133 32.51381088 32.91457611 32.52119781 31.86816406 32.52880859 C30.82122879 32.53688034 29.77429352 32.54495209 28.69563293 32.55326843 C26.47899021 32.56710253 24.26232624 32.5778277 22.0456543 32.58569336 C18.66120934 32.60290774 15.27774084 32.64680106 11.89355469 32.69091797 C9.73926499 32.70104498 7.584967 32.70956106 5.43066406 32.71630859 C4.42110153 32.73381668 3.411539 32.75132477 2.37138367 32.7693634 C-3.61563933 32.75094277 -6.98083489 32.25598837 -11.54980469 28.29052734 C-14.89205554 24.58695207 -16.41240026 22.07678492 -16.79980469 17.04052734 C-16.43605634 11.5843022 -15.11754705 7.77787266 -11.11230469 3.97802734 C-7.28729003 1.45911525 -4.62956076 0.0450078 0 0 Z " fill="#7FEBC6" transform="translate(106.5498046875,369.70947265625)"/>
<path d="M0 0 C0.94396133 -0.0038269 1.88792267 -0.00765381 2.86048889 -0.01159668 C4.84637526 -0.01430483 6.83229797 -0.00702093 8.81811523 0.00976562 C11.8359439 0.03116694 14.8513857 0.00993878 17.86914062 -0.015625 C19.80859894 -0.01298106 21.74805579 -0.00785472 23.6875 0 C24.57839828 -0.00809692 25.46929657 -0.01619385 26.38719177 -0.02453613 C32.51063882 0.06582821 37.68732769 1.20222974 42.91015625 4.53125 C46.37662178 8.27072217 48.19014232 11.90912016 48.53515625 17.03125 C48.22858483 21.95342452 46.34757638 25.99790186 42.91015625 29.53125 C37.32479725 33.21331063 32.05475194 32.98300231 25.59765625 32.96484375 C24.51057373 32.9700856 23.42349121 32.97532745 22.3034668 32.98072815 C20.0105881 32.9871368 17.71767647 32.98582639 15.42480469 32.97729492 C11.92192988 32.96877862 8.42068291 32.99757474 4.91796875 33.02929688 C2.6861984 33.0309089 0.45442518 33.03033132 -1.77734375 33.02734375 C-2.82124268 33.03857773 -3.8651416 33.04981171 -4.94067383 33.06138611 C-10.97571341 33.00368803 -14.51768269 32.59178624 -19.08984375 28.53125 C-22.45903899 24.00943534 -23.83108744 20.47258226 -23.53125 14.8046875 C-22.73928744 10.72572991 -21.06783887 7.42859109 -18.08984375 4.53125 C-12.16657224 0.6491511 -6.96832393 -0.063188 0 0 Z " fill="#FCD733" transform="translate(113.08984375,298.46875)"/>
<path d="M0 0 C0.99818253 -0.00990463 1.99636505 -0.01980927 3.02479553 -0.03001404 C4.11889236 -0.02551239 5.2129892 -0.02101074 6.34024048 -0.01637268 C8.06986275 -0.02666756 8.06986275 -0.02666756 9.83442688 -0.03717041 C13.65761526 -0.05551671 17.4803963 -0.05158926 21.30361938 -0.0459137 C23.28541939 -0.04932042 25.2672196 -0.05273422 27.24901736 -0.05726677 C33.48243244 -0.07132049 39.7157105 -0.06974455 45.9491272 -0.05836487 C52.37658912 -0.0468901 58.80363348 -0.06094613 65.23104036 -0.08776134 C70.75133303 -0.10992852 76.27149474 -0.11655326 81.79182875 -0.11068493 C85.08797425 -0.1073156 88.38379303 -0.11143588 91.67991257 -0.12693596 C95.3573701 -0.14179019 99.03390581 -0.13120801 102.71133423 -0.11402893 C103.8013826 -0.1236969 104.89143097 -0.13336487 106.01451111 -0.14332581 C113.36452074 -0.07132002 113.36452074 -0.07132002 117.33135986 2.23153687 C119.15518188 4.38768005 119.15518188 4.38768005 119.78018188 7.38768005 C119.15518188 10.38768005 119.15518188 10.38768005 117.33036804 12.5418396 C112.56035178 15.3148074 108.15354358 14.95366051 102.72720337 14.92112732 C100.99473358 14.93405067 100.99473358 14.93405067 99.2272644 14.94723511 C95.41004014 14.96993586 91.59354743 14.96314898 87.77627563 14.9540863 C85.79501569 14.95799693 83.81375535 14.96191789 81.83249909 14.96738571 C75.60672438 14.98437181 69.38119488 14.98083073 63.15542603 14.96409607 C56.73462537 14.94716037 50.31450385 14.96303114 43.89377731 14.99531895 C38.37683569 15.02200978 32.86010555 15.0292928 27.34310585 15.02080387 C24.0497562 15.01587485 20.7569061 15.02018725 17.46359062 15.03859138 C13.79314111 15.05596018 10.12415573 15.04155683 6.45376587 15.01878357 C4.81801353 15.03632187 4.81801353 15.03632187 3.1492157 15.05421448 C-4.18152411 14.96141049 -4.18152411 14.96141049 -7.55488586 12.04354858 C-9.21377997 8.62801676 -9.01233407 6.96806232 -7.84481812 3.38768005 C-5.50048781 0.29725005 -3.79990152 0.01063399 0 0 Z " fill="#7FA2FE" transform="translate(309.8448181152344,465.61231994628906)"/>
<path d="M0 0 C4.4138336 3.18725247 7.6772681 7.3685006 9.85546875 12.33984375 C10.2865267 15.41303334 10.22569133 18.48930104 10.23046875 21.58984375 C10.25496094 22.41097656 10.27945313 23.23210937 10.3046875 24.078125 C10.33741906 30.96266332 8.63597998 36.11768533 4.109375 41.36328125 C-1.39834858 45.76437214 -5.64046759 47.85085967 -12.80859375 47.6484375 C-19.46675448 46.7688477 -23.78685512 43.19844011 -27.91796875 38.12109375 C-31.46654868 32.96774201 -31.54191556 28.70525711 -31.58203125 22.58984375 C-31.61490234 21.72101563 -31.64777344 20.8521875 -31.68164062 19.95703125 C-31.7410069 12.76831551 -29.67048087 7.97814408 -24.66577148 2.81396484 C-17.32606431 -3.69529882 -8.58568176 -4.8155221 0 0 Z " fill="#FED9B3" transform="translate(334.14453125,70.66015625)"/>
<path d="M0 0 C0.85514191 -0.01134979 1.71028381 -0.02269958 2.59133911 -0.03439331 C3.99404053 -0.02999741 3.99404053 -0.02999741 5.42507935 -0.0255127 C6.41235016 -0.03398224 7.39962097 -0.04245178 8.41680908 -0.05117798 C11.68808798 -0.07462175 14.95889849 -0.07556828 18.23025513 -0.07434082 C20.50085642 -0.08143849 22.77145591 -0.0891369 25.04205322 -0.09741211 C29.80519595 -0.11087431 34.56817289 -0.11241809 39.33132935 -0.10656738 C45.43716992 -0.10067313 51.54221486 -0.13124423 57.64790154 -0.17168427 C62.33878876 -0.19752802 67.02948367 -0.2004416 71.72043228 -0.1967926 C73.97151818 -0.1984873 76.22261263 -0.20816327 78.473629 -0.22593689 C81.6220502 -0.24805757 84.76885146 -0.23845845 87.91726685 -0.2208252 C89.31389557 -0.24072006 89.31389557 -0.24072006 90.73873901 -0.26101685 C95.2550809 -0.2022066 97.20415319 -0.05439366 100.91436768 2.73754883 C102.80056763 5.39440918 102.80056763 5.39440918 102.86306763 8.51940918 C101.58765005 11.9705391 101.0358351 12.68142869 97.80056763 14.39440918 C94.55187373 14.85276216 91.32318348 14.82462157 88.04666138 14.81433105 C87.05763824 14.8228006 86.06861511 14.83127014 85.04962158 14.83999634 C81.77897297 14.86340404 78.50879367 14.86438767 75.23806763 14.86315918 C72.96649995 14.87025776 70.69493407 14.87795631 68.42337036 14.88623047 C63.6620078 14.89968347 58.90081108 14.90124 54.13943481 14.89538574 C48.03240417 14.88948484 41.92616719 14.92009438 35.81929016 14.96050262 C31.12844542 14.98632625 26.43779323 14.98926194 21.74688721 14.98561096 C19.4949748 14.98730679 17.24305393 14.99699347 14.99121094 15.01475525 C11.84508791 15.03684196 8.7005904 15.02729515 5.55447388 15.00964355 C4.62136383 15.0229068 3.68825378 15.03617004 2.72686768 15.04983521 C-3.55998587 14.9677009 -3.55998587 14.9677009 -6.81295776 12.05126953 C-8.19943237 9.39440918 -8.19943237 9.39440918 -8.13693237 6.26940918 C-6.64370394 1.69017531 -4.83297328 0.02425657 0 0 Z " fill="#7FA2FE" transform="translate(276.1994323730469,340.6055908203125)"/>
<path d="M0 0 C0.72421646 -0.00700928 1.44843292 -0.01401855 2.19459534 -0.02124023 C4.57869275 -0.03878626 6.96159451 -0.02721062 9.34570312 -0.01367188 C11.00809964 -0.01636779 12.67049461 -0.02025104 14.33288574 -0.02526855 C17.81305997 -0.03115897 21.29282289 -0.02261569 24.77294922 -0.00390625 C29.2286325 0.01888341 33.683352 0.00575782 38.13899994 -0.01819611 C41.57060985 -0.03266666 45.00199215 -0.02804241 48.43360901 -0.01768494 C50.07621882 -0.01502111 51.71884945 -0.01827533 53.36143494 -0.02760315 C55.65948026 -0.03778998 57.95597603 -0.02224035 60.25390625 0 C62.21318054 0.00477356 62.21318054 0.00477356 64.21203613 0.00964355 C68.18602662 0.60073469 69.86152186 1.64441335 72.62695312 4.51757812 C73.18945312 7.51757812 73.18945312 7.51757812 72.62695312 10.51757812 C71.0579834 12.67272949 71.0579834 12.67272949 68.62695312 14.51757812 C66.00048687 14.91258756 63.79201445 15.06553725 61.16796875 15.03515625 C60.42278488 15.04216553 59.67760101 15.0491748 58.90983582 15.05639648 C56.45057737 15.07397854 53.99247294 15.06235386 51.53320312 15.04882812 C49.82214131 15.051523 48.11108099 15.05540538 46.40002441 15.0604248 C42.81552538 15.06632011 39.23142529 15.05775611 35.64697266 15.0390625 C31.05328873 15.01627263 26.46053958 15.02939559 21.86688995 15.05335236 C18.33409589 15.06780964 14.80152329 15.06320473 11.26872253 15.05284119 C9.57504668 15.05017369 7.8813507 15.05344448 6.18769836 15.0627594 C3.81990336 15.07292425 1.45361996 15.05742692 -0.9140625 15.03515625 C-1.61340408 15.04325317 -2.31274567 15.0513501 -3.03327942 15.05969238 C-6.37279458 15.00152851 -8.1122904 14.71545975 -10.80407715 12.67272949 C-12.37304688 10.51757812 -12.37304688 10.51757812 -12.93554688 7.51757812 C-12.37304688 4.51757812 -12.37304688 4.51757812 -10.29870605 2.36242676 C-6.61746062 0.04112404 -4.33590811 0.01056397 0 0 Z " fill="#4E5782" transform="translate(95.373046875,132.482421875)"/>
<path d="M0 0 C0.72680466 0.00090637 1.45360931 0.00181274 2.20243835 0.00274658 C2.9684436 -0.00397064 3.73444885 -0.01068787 4.52366638 -0.01760864 C7.06322157 -0.03665209 9.60251341 -0.04051593 12.14213562 -0.04266357 C13.90329092 -0.04908686 15.66444513 -0.05581486 17.42559814 -0.06283569 C21.12027969 -0.07482417 24.81486763 -0.07851489 28.50956726 -0.07733154 C33.24906147 -0.07712821 37.987957 -0.10443789 42.72730923 -0.13887596 C46.3655372 -0.16108891 50.00361979 -0.16517082 53.64190865 -0.16411209 C55.38946154 -0.16647623 57.13701796 -0.17534526 58.88450432 -0.19077682 C61.3268491 -0.21032529 63.76788601 -0.20464383 66.21025085 -0.19256592 C66.93503128 -0.20380493 67.65981171 -0.21504395 68.40655518 -0.22662354 C71.61507459 -0.1862059 73.33326945 -0.10712212 75.74749756 2.10098267 C77.32275328 5.47496396 76.73238463 7.76835049 75.77104187 11.29327393 C73.37826816 13.81087672 71.95441815 14.27132167 68.47637939 14.68768311 C66.51377419 14.70031189 66.51377419 14.70031189 64.51152039 14.7131958 C63.42541473 14.72590012 63.42541473 14.72590012 62.31736755 14.73886108 C59.92804821 14.76222642 57.53937299 14.76325342 55.14994812 14.76202393 C53.48612206 14.76912575 51.82229845 14.77682478 50.15847778 14.78509521 C46.672411 14.79853887 43.18657068 14.80010934 39.70048523 14.79425049 C35.23682659 14.78835398 30.7742555 14.81894341 26.31080723 14.85936737 C22.87492028 14.88523827 19.43929543 14.88812239 16.00332451 14.88447571 C14.35789697 14.8861675 12.7124574 14.89581588 11.06712532 14.91362 C8.76399936 14.93579995 6.4630774 14.92611595 4.15995789 14.9085083 C2.85075882 14.91056274 1.54155975 14.91261719 0.19268799 14.91473389 C-4.10809007 14.13360069 -5.62011065 12.74561987 -8.22895813 9.29327393 C-8.11374053 2.49543583 -6.8961809 0.08870663 0 0 Z " fill="#4E5884" transform="translate(91.22895812988281,99.70672607421875)"/>
<path d="M0 0 C0.74503784 -0.00671722 1.49007568 -0.01343445 2.25769043 -0.02035522 C4.72207292 -0.03936282 7.18618352 -0.04326065 9.65063477 -0.04541016 C11.36312472 -0.05183574 13.07561357 -0.05856392 14.7881012 -0.06558228 C18.37845404 -0.07756163 21.96871061 -0.08126238 25.55908203 -0.08007812 C30.16057299 -0.0798748 34.76144728 -0.10718782 39.36279202 -0.14162254 C42.89983457 -0.16385476 46.4367278 -0.16791682 49.97383308 -0.16685867 C51.67032054 -0.16921977 53.36681179 -0.17807187 55.06323051 -0.19352341 C57.43582296 -0.21311156 59.80707363 -0.2073749 62.1796875 -0.1953125 C62.88060013 -0.20655151 63.58151276 -0.21779053 64.30366516 -0.22937012 C67.63458994 -0.18631809 69.40524162 0.10786495 72.12171936 2.09823608 C73.65454102 4.29052734 73.65454102 4.29052734 73.65454102 7.85302734 C72.65454102 11.29052734 72.65454102 11.29052734 71.04576111 12.97912598 C67.738092 14.79312955 65.16027098 14.68622094 61.39501953 14.71044922 C60.30891388 14.72315353 60.30891388 14.72315353 59.2008667 14.7361145 C56.81154735 14.75947984 54.42287213 14.76050684 52.03344727 14.75927734 C50.3696212 14.76637917 48.70579759 14.7740782 47.04197693 14.78234863 C43.55591014 14.79579229 40.07006982 14.79736275 36.58398438 14.79150391 C32.12032574 14.7856074 27.65775464 14.81619683 23.19430637 14.85662079 C19.75841943 14.88249168 16.32279457 14.88537581 12.88682365 14.88172913 C11.24139612 14.88342092 9.59595655 14.8930693 7.95062447 14.91087341 C5.64749851 14.93305337 3.34657654 14.92336937 1.04345703 14.90576172 C-0.26574203 14.90781616 -1.5749411 14.90987061 -2.92381287 14.9119873 C-7.22487957 14.13080168 -8.73349396 12.74037437 -11.34545898 9.29052734 C-11.34545898 5.60302734 -11.34545898 5.60302734 -10.34545898 2.29052734 C-6.751016 -0.10576798 -4.15203706 -0.00535367 0 0 Z " fill="#4E5782" transform="translate(94.345458984375,65.70947265625)"/>
<path d="M0 0 C0.73382401 -0.00700928 1.46764801 -0.01401855 2.22370911 -0.02124023 C4.64570131 -0.03882275 7.06652162 -0.02719632 9.48852539 -0.01367188 C11.17477136 -0.01636703 12.86101582 -0.02024965 14.54725647 -0.02526855 C18.08048303 -0.03116416 21.61330489 -0.0226 25.14648438 -0.00390625 C29.67057289 0.01886618 34.19371132 0.00577197 38.71776485 -0.01819611 C42.19998805 -0.03266753 45.68198695 -0.0280417 49.164217 -0.01768494 C50.83194657 -0.01502044 52.49969664 -0.01827768 54.16740227 -0.02760315 C56.50147084 -0.03778937 58.83401352 -0.02224017 61.16796875 0 C61.85436432 -0.00809692 62.54075989 -0.01619385 63.24795532 -0.02453613 C66.72463841 0.03668222 68.60871584 0.49240097 71.5771637 2.36242676 C73.64868164 4.51757813 73.64868164 4.51757813 74.27368164 7.51757812 C73.64868164 10.51757813 73.64868164 10.51757813 71.5771637 12.67272949 C68.02239356 14.91211929 65.23841965 15.08317248 61.16796875 15.03515625 C60.43239243 15.04216553 59.6968161 15.0491748 58.93894958 15.05639648 C56.51758617 15.0739426 54.09739981 15.06236796 51.67602539 15.04882812 C49.98881303 15.05152375 48.30160219 15.05540675 46.61439514 15.0604248 C43.08294851 15.06631498 39.55190724 15.05777158 36.02050781 15.0390625 C31.49522927 15.01625538 26.97089877 15.02940968 22.44565487 15.05335236 C18.96347411 15.06780858 15.48151806 15.06320553 11.99933052 15.05284119 C10.33077443 15.05017431 8.6621979 15.05344233 6.9936657 15.0627594 C4.6618941 15.07292451 2.33165731 15.05742757 0 15.03515625 C-0.6884198 15.04325317 -1.3768396 15.0513501 -2.08612061 15.05969238 C-5.40295362 15.00103048 -7.10757447 14.70276436 -9.77952576 12.67272949 C-11.35131836 10.51757812 -11.35131836 10.51757812 -11.85131836 7.51757812 C-10.71316472 0.68865632 -6.13346099 -0.07213936 0 0 Z " fill="#4D5680" transform="translate(94.351318359375,31.482421875)"/>
</svg>
