<?xml version="1.0" encoding="UTF-8"?>
<svg version="1.1" xmlns="http://www.w3.org/2000/svg" width="512" height="512">
<path d="M0 0 C1.07865326 -0.00623996 2.15730652 -0.01247993 3.26864624 -0.01890898 C6.89546342 -0.03490751 10.52161492 -0.02220737 14.1484375 -0.00964355 C16.74349359 -0.0150616 19.3385466 -0.02218246 21.93359375 -0.03088379 C28.25779314 -0.04868452 34.5818028 -0.04482221 40.90600967 -0.03323323 C46.04510304 -0.02420524 51.18414317 -0.02297214 56.32324219 -0.02732849 C57.41973996 -0.02824789 57.41973996 -0.02824789 58.53838921 -0.02918586 C60.02332816 -0.03046474 61.5082671 -0.0317616 62.99320602 -0.03307623 C76.92247659 -0.04448657 90.85164192 -0.03136123 104.78089523 -0.00987476 C116.73679537 0.00799666 128.69254017 0.00489268 140.6484375 -0.0135498 C154.52733926 -0.03494854 168.40614875 -0.04338789 182.2850647 -0.03110075 C183.76458739 -0.02982653 185.24411009 -0.02856905 186.72363281 -0.02732849 C187.81560628 -0.02640284 187.81560628 -0.02640284 188.92963982 -0.02545848 C194.06346728 -0.02200258 199.19723628 -0.02783908 204.33105469 -0.0372467 C211.23887883 -0.04962671 218.14640414 -0.04083189 225.05419922 -0.01766968 C227.59390778 -0.01236719 230.13364098 -0.01392247 232.67333984 -0.02272034 C236.13152254 -0.03359813 239.58875349 -0.02000508 243.046875 0 C244.56612076 -0.01338433 244.56612076 -0.01338433 246.11605835 -0.02703905 C252.72713417 0.04750319 252.72713417 0.04750319 256.14815903 2.02557755 C258.10294229 5.55393203 258.06297923 8.80515947 258.00445557 12.73358154 C258.00787327 13.57004392 258.01129097 14.4065063 258.01481223 15.26831603 C258.02140886 18.07542385 257.99938586 20.88157869 257.97753906 23.68859863 C257.97641097 25.69901507 257.9770437 27.70943316 257.97930908 29.71984863 C257.98045864 35.1823913 257.95690999 40.64458398 257.92901325 46.10704517 C257.90404001 51.81387886 257.90166081 57.5207202 257.89691162 63.2276001 C257.88446987 74.03649765 257.85163194 84.84523374 257.81151366 95.65406013 C257.76683334 107.95861185 257.74481831 120.26317121 257.72473192 132.56778383 C257.68290043 157.88126003 257.61172104 183.19458145 257.5234375 208.50793457 C262.8034375 208.50793457 268.0834375 208.50793457 273.5234375 208.50793457 C273.51455505 206.82632233 273.50567261 205.14471008 273.496521 203.41213989 C273.41537392 187.55127846 273.35520189 171.69048169 273.31618881 155.82946205 C273.29559786 147.67548894 273.26754397 139.52167121 273.22167969 131.36779785 C273.1817053 124.25763127 273.1559795 117.14757726 273.14708352 110.03730142 C273.14188661 106.27535265 273.12974532 102.51372583 273.10051727 98.75188065 C273.07317999 95.20433753 273.06502895 91.65724615 273.07100677 88.1096077 C273.06939754 86.2006374 273.04797112 84.29171526 273.02575684 82.38287354 C273.07222852 72.5954774 274.99720039 64.34473895 281.8203125 57.03918457 C288.02091794 51.4643283 294.94558555 48.28255849 303.35083008 48.21740723 C304.4767305 48.20464752 305.60263092 48.19188782 306.76264954 48.17874146 C308.57203255 48.17540298 308.57203255 48.17540298 310.41796875 48.17199707 C312.30910652 48.16201187 312.30910652 48.16201187 314.2384491 48.15182495 C316.90902811 48.14170682 319.57920018 48.13614098 322.24975586 48.1373291 C324.95445824 48.13749056 327.65847549 48.12378014 330.36303711 48.09631348 C348.49251679 47.92533302 365.79736404 47.85219051 382.3359375 56.19543457 C383.03549561 56.53864746 383.73505371 56.88186035 384.45581055 57.23547363 C405.84357256 68.08991606 421.47440533 86.83916366 429.77210999 109.16867065 C433.62772378 121.17315345 433.92941531 132.56492218 433.81640625 145.03137207 C433.81079674 146.87223969 433.80653306 148.71311186 433.80354309 150.5539856 C433.79220086 155.3510825 433.76282784 160.14789798 433.72943115 164.94488525 C433.69849851 169.85909216 433.68498866 174.77334545 433.66992188 179.68762207 C433.63794575 189.29451516 433.58688136 198.90120128 433.5234375 208.50793457 C434.10834961 208.4869873 434.69326172 208.46604004 435.29589844 208.44445801 C437.95490215 208.36113342 440.61363105 208.3092256 443.2734375 208.25793457 C444.19382812 208.22441895 445.11421875 208.19090332 446.0625 208.15637207 C452.82133074 208.058418 452.82133074 208.058418 456.13171387 210.17785645 C457.82583711 213.01422382 458.0302404 214.74169354 458.04101562 218.03918457 C458.05992859 219.7011084 458.05992859 219.7011084 458.07922363 221.39660645 C458.06707825 223.18421387 458.06707825 223.18421387 458.0546875 225.00793457 C458.0585144 226.2357666 458.06234131 227.46359863 458.06628418 228.7286377 C458.06900592 231.32434916 458.06162661 233.92008793 458.04492188 236.51574707 C458.02351825 240.49293056 458.04471713 244.46830739 458.0703125 248.44543457 C458.06766927 250.9662719 458.06254441 253.4871081 458.0546875 256.00793457 C458.06278442 257.19967285 458.07088135 258.39141113 458.07922363 259.6192627 C458.06661499 260.72721191 458.05400635 261.83516113 458.04101562 262.97668457 C458.03783325 263.95057129 458.03465088 264.92445801 458.03137207 265.92785645 C457.35012262 269.38829584 456.42664217 270.50872265 453.5234375 272.50793457 C450.8442193 272.88233247 448.58261016 273.01580976 445.90917969 272.96203613 C444.76713577 272.96291229 444.76713577 272.96291229 443.60202026 272.96380615 C441.09098364 272.9610243 438.58114116 272.92992909 436.0703125 272.89855957 C434.32725676 272.8910975 432.58419262 272.88540441 430.84112549 272.88140869 C426.25749474 272.86614958 421.67437248 272.82686556 417.09094238 272.78259277 C412.41226073 272.74164595 407.73349676 272.72339894 403.0546875 272.70324707 C393.87738098 272.66037143 384.70045156 272.59211685 375.5234375 272.50793457 C375.84744537 273.4499472 376.17145325 274.39195984 376.50527954 275.36251831 C379.99375595 286.13954002 378.48148351 300.4991688 373.5234375 310.50793457 C366.99199808 322.73701263 357.2899371 330.49252401 344.5234375 335.50793457 C340.85511702 336.55602613 337.3217186 337.18635486 333.5234375 337.50793457 C332.84023438 337.56594238 332.15703125 337.6239502 331.453125 337.68371582 C329.44422034 337.76098138 327.52662347 337.6780164 325.5234375 337.50793457 C324.71648437 337.43961426 323.90953125 337.37129395 323.078125 337.30090332 C309.30008265 335.47320382 298.05304033 328.30831353 289.5234375 317.50793457 C283.71890342 308.15294101 281.17602787 299.37966574 281.2734375 288.44543457 C281.26570313 287.57338379 281.25796875 286.70133301 281.25 285.80285645 C281.25386719 284.52571777 281.25386719 284.52571777 281.2578125 283.22277832 C281.26006836 282.46086182 281.26232422 281.69894531 281.26464844 280.91394043 C281.5234375 278.50793457 281.5234375 278.50793457 283.5234375 272.50793457 C221.4834375 272.50793457 159.4434375 272.50793457 95.5234375 272.50793457 C96.1834375 274.48793457 96.8434375 276.46793457 97.5234375 278.50793457 C99.24978168 292.33319512 97.60448468 305.90757702 89.26171875 317.35559082 C80.54388697 328.15002972 70.00614735 335.43879959 55.96875 337.30090332 C55.16179687 337.36922363 54.35484375 337.43754395 53.5234375 337.50793457 C52.84023437 337.56594238 52.15703125 337.6239502 51.453125 337.68371582 C49.44422034 337.76098138 47.52662347 337.6780164 45.5234375 337.50793457 C44.71648437 337.43961426 43.90953125 337.37129395 43.078125 337.30090332 C29.30008265 335.47320382 18.05304033 328.30831353 9.5234375 317.50793457 C3.71890342 308.15294101 1.17602787 299.37966574 1.2734375 288.44543457 C1.26183594 287.1373584 1.26183594 287.1373584 1.25 285.80285645 C1.25257812 284.95143066 1.25515625 284.10000488 1.2578125 283.22277832 C1.26006836 282.46086182 1.26232422 281.69894531 1.26464844 280.91394043 C1.58584375 277.92773306 2.50028435 275.32262178 3.5234375 272.50793457 C2.39325195 272.52888184 1.26306641 272.5498291 0.09863281 272.57141113 C-4.09817819 272.64386153 -8.29493402 272.68975241 -12.4921875 272.72766113 C-14.3080373 272.74776518 -16.12382245 272.77505292 -17.93945312 272.80969238 C-20.55094355 272.85826496 -23.16157748 272.88091484 -25.7734375 272.89855957 C-26.58399597 272.91920471 -27.39455444 272.93984985 -28.22967529 272.96112061 C-31.66486498 272.96248533 -33.90503063 272.94229879 -36.69061279 270.82525635 C-38.88350118 267.97991977 -38.98250104 266.53869123 -38.99414062 262.97668457 C-39.00674927 261.86873535 -39.01935791 260.76078613 -39.03234863 259.6192627 C-39.02425171 258.42752441 -39.01615479 257.23578613 -39.0078125 256.00793457 C-39.0116394 254.78010254 -39.01546631 253.55227051 -39.01940918 252.28723145 C-39.02213092 249.69151998 -39.01475161 247.09578121 -38.99804688 244.50012207 C-38.97664325 240.52293858 -38.99784213 236.54756175 -39.0234375 232.57043457 C-39.02079427 230.04959724 -39.01566941 227.52876104 -39.0078125 225.00793457 C-39.01590942 223.81619629 -39.02400635 222.62445801 -39.03234863 221.39660645 C-39.01973999 220.28865723 -39.00713135 219.18070801 -38.99414062 218.03918457 C-38.99095825 217.06529785 -38.98777588 216.09141113 -38.98449707 215.0880127 C-38.28564936 211.53818209 -37.44413667 210.61726224 -34.4765625 208.50793457 C-31.04850737 208.01000911 -27.6812376 208.13213408 -24.2265625 208.25793457 C-23.29070313 208.27598145 -22.35484375 208.29402832 -21.390625 208.31262207 C-19.08489235 208.35967784 -16.78125305 208.42539744 -14.4765625 208.50793457 C-14.48024967 207.46026035 -14.48393684 206.41258614 -14.48773575 205.33316422 C-14.5764626 179.86224071 -14.64223156 154.39133721 -14.68381119 128.9202919 C-14.70445231 116.60277063 -14.73260257 104.28535133 -14.77832031 91.96789551 C-14.81814056 81.2342668 -14.84398403 70.50071192 -14.85291648 59.7670114 C-14.85813936 54.08152233 -14.87044733 48.39624454 -14.89948273 42.71082306 C-14.92657571 37.36255637 -14.93501985 32.01458856 -14.92899323 26.66625977 C-14.9300962 24.70060351 -14.93808633 22.73493755 -14.9533844 20.76934052 C-14.97321665 18.09038385 -14.96852661 15.41256319 -14.95758057 12.73358154 C-14.96923193 11.95147946 -14.9808833 11.16937737 -14.99288774 10.36357522 C-14.95733516 7.15581087 -14.66531841 4.84863616 -13.10128403 2.02557755 C-8.89686882 -0.40546176 -4.77219319 -0.04204232 0 0 Z M1.5234375 16.50793457 C1.5234375 79.86793457 1.5234375 143.22793457 1.5234375 208.50793457 C80.7234375 208.50793457 159.9234375 208.50793457 241.5234375 208.50793457 C241.5234375 145.14793457 241.5234375 81.78793457 241.5234375 16.50793457 C162.3234375 16.50793457 83.1234375 16.50793457 1.5234375 16.50793457 Z M293.5859375 70.25793457 C288.94835875 77.56563442 289.24474146 84.62739916 289.29638672 93.0526123 C289.29614565 94.32221581 289.29590458 95.59181932 289.2956562 96.89989567 C289.29520675 100.31812071 289.30675475 103.73620425 289.32087708 107.15439606 C289.33231071 110.36798198 289.33280569 113.58156218 289.33422852 116.79516602 C289.34470158 126.17860743 289.37262407 135.56202282 289.3984375 144.94543457 C289.4396875 165.92105957 289.4809375 186.89668457 289.5234375 208.50793457 C331.7634375 208.50793457 374.0034375 208.50793457 417.5234375 208.50793457 C417.5646875 197.47355957 417.6059375 186.43918457 417.6484375 175.07043457 C417.66664551 171.62291748 417.68485352 168.17540039 417.70361328 164.62341309 C417.71031375 161.45562178 417.71031375 161.45562178 417.71432495 158.28782654 C417.71733929 156.90772704 417.72425017 155.52763182 417.73458862 154.14756775 C417.79108954 146.18747481 417.54764684 138.35965339 416.64404297 130.44519043 C416.52904796 129.42333192 416.52904796 129.42333192 416.41172981 128.38082981 C413.96873367 108.98140624 403.51653311 92.86261282 388.8359375 80.32043457 C370.30942611 66.16823837 349.43238011 64.31964645 326.95263672 64.2677002 C324.396487 64.25792711 321.84112072 64.22677807 319.28515625 64.19543457 C305.30030767 63.66136394 305.30030767 63.66136394 293.5859375 70.25793457 Z M-22.4765625 224.50793457 C-22.4765625 235.06793457 -22.4765625 245.62793457 -22.4765625 256.50793457 C-17.51060423 256.69271441 -12.55675999 256.85149674 -7.59008789 256.9473877 C-5.90510465 256.98737964 -4.22039482 257.04179615 -2.53637695 257.1114502 C9.02157333 257.88290879 9.02157333 257.88290879 18.86328125 252.65637207 C19.47163818 251.95173828 20.07999512 251.24710449 20.70678711 250.52111816 C25.63935568 245.0549227 34.59158003 241.99488562 41.76367188 241.28674316 C57.20832881 240.54723738 69.2734606 242.38838843 81.5234375 252.50793457 C82.05637326 253.19364155 82.58930902 253.87934853 83.13839436 254.5858345 C86.5213148 257.31212129 89.67909004 257.07535146 93.84037781 257.04278564 C94.68682431 257.05184787 95.5332708 257.0609101 96.4053672 257.07024693 C99.24662129 257.09560265 102.08711196 257.09229017 104.9284668 257.08898926 C106.96369923 257.1009559 108.99892256 257.11456609 111.03413391 257.12969971 C116.56743112 257.16508059 122.100481 257.17441314 127.63388038 257.17696285 C132.25348459 257.18075949 136.87303111 257.19547348 141.49261314 257.20965123 C152.39443779 257.24223955 163.29613029 257.25198751 174.19799805 257.24914551 C185.43968033 257.2467439 196.68059386 257.28891715 207.92208165 257.35212016 C217.57491372 257.40445514 227.22749487 257.42587965 236.88046771 257.42332387 C242.64504516 257.42230459 248.40894005 257.43367004 254.17337608 257.47603607 C259.59839302 257.51481698 265.02207721 257.51504178 270.44714165 257.48596954 C272.43489278 257.48179246 274.42272745 257.49120142 276.41033554 257.51541138 C288.57111034 258.04114102 288.57111034 258.04114102 298.95637512 252.62689209 C299.55129163 251.92651447 300.14620813 251.22613686 300.75915241 250.50453568 C305.60453845 245.02112305 314.65263663 241.98885715 321.76367188 241.28674316 C337.20832881 240.54723738 349.2734606 242.38838843 361.5234375 252.50793457 C362.07465271 253.19530701 362.62586792 253.88267944 363.19378662 254.59088135 C366.34897799 257.187266 369.04856399 257.04270245 372.95410156 256.96203613 C374.06688477 256.96291229 374.06688477 256.96291229 375.20214844 256.96380615 C377.64826652 256.96102482 380.09315797 256.92993243 382.5390625 256.89855957 C384.23727757 256.89109731 385.93550126 256.88540431 387.63372803 256.88140869 C392.0989976 256.86615108 396.56374503 256.82686846 401.02880859 256.78259277 C405.58684221 256.74164264 410.14496037 256.72339824 414.703125 256.70324707 C423.64349524 256.66037393 432.58334122 256.59002332 441.5234375 256.50793457 C441.5234375 245.94793457 441.5234375 235.38793457 441.5234375 224.50793457 C288.4034375 224.50793457 135.2834375 224.50793457 -22.4765625 224.50793457 Z M25.1484375 267.82043457 C24.23403985 269.02058149 23.35796002 270.25093502 22.5234375 271.50793457 C22.1109375 272.1292627 21.6984375 272.75059082 21.2734375 273.39074707 C17.4394016 280.39318763 17.28513939 288.75410526 18.5234375 296.50793457 C21.59227354 306.40885083 27.57951136 313.05284593 36.5859375 317.94543457 C44.43885569 321.08388457 54.05806805 320.76266118 61.9609375 317.94543457 C70.35071655 313.95959269 75.86151155 308.010518 79.5234375 299.50793457 C82.19708181 291.36703043 81.47009138 281.42907251 77.83203125 273.75012207 C72.58708948 264.76326662 65.18779797 259.59709089 55.1015625 256.84777832 C43.80848954 255.10576175 32.84728989 259.50257898 25.1484375 267.82043457 Z M305.1484375 267.82043457 C304.23403985 269.02058149 303.35796002 270.25093502 302.5234375 271.50793457 C302.1109375 272.1292627 301.6984375 272.75059082 301.2734375 273.39074707 C297.4394016 280.39318763 297.28513939 288.75410526 298.5234375 296.50793457 C301.59227354 306.40885083 307.57951136 313.05284593 316.5859375 317.94543457 C324.43885569 321.08388457 334.05806805 320.76266118 341.9609375 317.94543457 C350.35071655 313.95959269 355.86151155 308.010518 359.5234375 299.50793457 C362.19708181 291.36703043 361.47009138 281.42907251 357.83203125 273.75012207 C352.58708948 264.76326662 345.18779797 259.59709089 335.1015625 256.84777832 C323.80848954 255.10576175 312.84728989 259.50257898 305.1484375 267.82043457 Z " fill="#5E72E8" transform="translate(46.4765625,87.4920654296875)"/>
<path d="M0 0 C1.49220967 1.14993715 2.97319108 2.31473863 4.4375 3.5 C5.489375 4.263125 6.54125 5.02625 7.625 5.8125 C13.46822569 11.39602677 17.59860266 18.43642889 21.4375 25.5 C21.994375 24.81035156 22.55125 24.12070313 23.125 23.41015625 C24.72429419 21.44075513 26.3330067 19.47897868 27.94921875 17.5234375 C29.45491505 15.69391013 30.94243983 13.8489199 32.39453125 11.9765625 C38.30771954 4.68155548 44.94275197 0.30772796 54.34375 -1.07421875 C64.27522664 -1.72932935 72.68309013 0.60758675 80.3671875 7.140625 C81.96345166 8.84013012 83.20055514 10.52580324 84.4375 12.5 C84.84742188 13.12132812 85.25734375 13.74265625 85.6796875 14.3828125 C89.92572616 22.08424813 89.70645336 32.07486792 87.7421875 40.47265625 C85.62701779 46.22271843 82.36296981 50.84934299 78.4375 55.5 C78.02467773 55.98952148 77.61185547 56.47904297 77.18652344 56.98339844 C74.16029995 60.56139978 71.10171046 64.11072125 68.03417969 67.65332031 C65.99004154 70.01751923 63.95580881 72.39006841 61.92431641 74.76513672 C60.93209159 75.92289526 59.93696228 77.07817082 58.93896484 78.23095703 C56.37314206 81.20063615 53.86767 84.19923753 51.4375 87.28125 C44.45471605 96.03133791 38.15992044 102.39901235 26.546875 104.0546875 C15.90193203 104.79241804 8.18956812 101.33471208 -0.5625 95.5 C-1.16835937 95.82613281 -1.77421875 96.15226562 -2.3984375 96.48828125 C-3.23632812 96.92527344 -4.07421875 97.36226563 -4.9375 97.8125 C-5.74960938 98.24175781 -6.56171875 98.67101562 -7.3984375 99.11328125 C-15.37417224 102.60881932 -22.67951755 104.03480604 -31.375 103.9375 C-32.33768799 103.92920166 -33.30037598 103.92090332 -34.29223633 103.91235352 C-46.89856255 103.61444941 -56.42400294 99.94869172 -66.5625 92.5 C-67.62404297 91.74976563 -67.62404297 91.74976563 -68.70703125 90.984375 C-79.90113298 82.24105294 -86.00555177 68.5929441 -88.12109375 54.87890625 C-89.72722674 38.96659896 -85.82262455 24.77675683 -76.59765625 11.71875 C-58.17013233 -10.51781518 -24.17981494 -16.37063026 0 0 Z M-64.01953125 24.34765625 C-67.43739588 29.11536109 -69.5625 33.61411377 -69.5625 39.5 C-44.4825 39.5 -19.4025 39.5 6.4375 39.5 C4.68425449 28.98052692 -0.3628936 21.05025884 -9.05859375 14.66796875 C-28.19254047 2.69833085 -49.91452943 7.5313955 -64.01953125 24.34765625 Z M36.4375 34.5 C37.81803655 37.69119001 39.33689474 39.53343562 42 41.75 C43.05380859 42.64138672 43.05380859 42.64138672 44.12890625 43.55078125 C44.89074219 44.19402344 45.65257812 44.83726562 46.4375 45.5 C48.10827874 46.97452034 49.7750287 48.45361962 51.4375 49.9375 C52.200625 50.61683594 52.96375 51.29617187 53.75 51.99609375 C54.306875 52.49238281 54.86375 52.98867187 55.4375 53.5 C59.56247734 51.94593877 61.87155962 48.95473928 64.5625 45.625 C65.00464844 45.09519531 65.44679687 44.56539062 65.90234375 44.01953125 C70.59374113 38.30764864 71.99704364 34.63540996 71.8984375 27.26953125 C71.16647489 22.87155249 68.81186891 20.2799205 65.4375 17.5 C52.12269276 10.84259638 43.41575963 25.56718153 36.4375 34.5 Z M24.4375 48.5 C13.42463607 59.10808905 13.42463607 59.10808905 8.75 73.0625 C8.96668112 78.08810401 10.43263775 80.72697483 13.9296875 84.2578125 C17.2973156 87.03217969 20.55431403 87.0259287 24.7890625 86.953125 C33.54337403 85.45533719 40.15438174 74.09307176 45.4375 67.5 C41.28424922 63.29040667 37.00582229 59.22708665 32.6875 55.1875 C32.00300781 54.54232422 31.31851563 53.89714844 30.61328125 53.23242188 C29.96230469 52.62333984 29.31132812 52.01425781 28.640625 51.38671875 C28.04926758 50.83201904 27.45791016 50.27731934 26.84863281 49.70581055 C25.62014933 48.39172807 25.62014933 48.39172807 24.4375 48.5 Z M-69.5625 55.5 C-68.02653774 66.25173581 -63.35349567 72.59132195 -55.16015625 79.5859375 C-45.6613779 86.58503734 -35.02243936 87.57454375 -23.5625 86.5 C-17.45469015 85.11316788 -12.01254959 83.02771189 -7.5625 78.5 C-6.85298463 75.31436559 -6.85298463 75.31436559 -6.9375 71.8125 C-6.86528187 65.32008987 -5.79776124 62.20578373 -3.5625 55.5 C-25.3425 55.5 -47.1225 55.5 -69.5625 55.5 Z " fill="#8953DD" transform="translate(167.5625,152.5)"/>
<path d="M0 0 C0.89225784 -0.01583633 1.78451569 -0.03167267 2.70381165 -0.04798889 C3.66417831 -0.04302902 4.62454498 -0.03806915 5.61401367 -0.03295898 C6.61599289 -0.03915756 7.61797211 -0.04535614 8.65031433 -0.05174255 C10.7761437 -0.05884814 12.90202863 -0.05565388 15.02783203 -0.04296875 C18.23277919 -0.02926315 21.43471109 -0.06296991 24.6394043 -0.10131836 C41.18364645 -0.16443663 54.24580228 1.78620177 67.46948242 12.53344727 C68.2919043 13.15219727 69.11432617 13.77094727 69.96166992 14.40844727 C79.34007551 22.35525823 84.92872525 33.63973837 87.46948242 45.53344727 C87.74042939 49.36332932 87.74648499 53.19499151 87.78198242 57.03344727 C87.82548828 58.6015918 87.82548828 58.6015918 87.86987305 60.20141602 C87.87825195 61.20817383 87.88663086 62.21493164 87.89526367 63.25219727 C87.90984619 64.16936523 87.92442871 65.0865332 87.93945312 66.03149414 C87.29324751 69.47165783 86.26968611 70.43213654 83.46948242 72.53344727 C80.52162972 72.92800514 77.94770959 73.08077041 75.00073242 73.05102539 C74.14825928 73.05803467 73.29578613 73.06504395 72.41748047 73.07226562 C69.60114923 73.08986295 66.78582379 73.07821687 63.96948242 73.06469727 C62.01179817 73.06739168 60.05411522 73.07127368 58.09643555 73.07629395 C53.99409236 73.08219134 49.89209761 73.0736182 45.78979492 73.05493164 C40.53027614 73.03214202 35.27157379 73.0452638 30.01208496 73.0692215 C25.96974532 73.0836729 21.92759937 73.07907649 17.88525391 73.06871033 C15.94596256 73.06604122 14.00665365 73.06931924 12.06738281 73.07862854 C9.35719192 73.08878328 6.64832467 73.07330854 3.93823242 73.05102539 C2.73493286 73.06317078 2.73493286 73.06317078 1.50732422 73.07556152 C-1.9157199 73.02339801 -4.1369993 72.7920285 -7.02746582 70.8927002 C-8.97174325 67.84088099 -9.03779765 65.87918144 -9.0480957 62.26782227 C-9.06070435 60.99970703 -9.07331299 59.7315918 -9.08630371 58.42504883 C-9.07914388 57.04450931 -9.07093988 55.66397488 -9.06176758 54.28344727 C-9.0644632 52.86384821 -9.06834621 51.44425095 -9.07336426 50.0246582 C-9.07925616 47.05214832 -9.07070712 44.08011985 -9.05200195 41.10766602 C-9.02921158 37.3008594 -9.04233646 33.49518077 -9.06629181 29.68841553 C-9.08075872 26.7578077 -9.07613993 23.82746652 -9.06578064 20.89685059 C-9.06311577 19.49344753 -9.06637475 18.09002012 -9.07569885 16.68664551 C-9.08587698 14.72412592 -9.06760798 12.76152125 -9.0480957 10.79907227 C-9.04491333 9.68306641 -9.04173096 8.56706055 -9.03845215 7.41723633 C-8.11484578 2.17347838 -5.19020491 0.04120246 0 0 Z M7.46948242 16.53344727 C7.46948242 29.73344727 7.46948242 42.93344727 7.46948242 56.53344727 C28.25948242 56.53344727 49.04948242 56.53344727 70.46948242 56.53344727 C70.46948242 45.00830568 67.45357618 36.8969831 59.46948242 28.53344727 C47.78339808 17.37754444 34.37683053 16.35208938 18.96948242 16.47094727 C13.27698242 16.50188477 13.27698242 16.50188477 7.46948242 16.53344727 Z " fill="#8656DE" transform="translate(360.530517578125,167.466552734375)"/>
<path d="M0 0 C7.92 0 15.84 0 24 0 C24 5.28 24 10.56 24 16 C16.08 16 8.16 16 0 16 C0 10.72 0 5.44 0 0 Z " fill="#626FE7" transform="translate(352,256)"/>
</svg>
