<?xml version="1.0" encoding="UTF-8"?>
<svg version="1.1" xmlns="http://www.w3.org/2000/svg" width="1584" height="396">
<path d="M0 0 C2.78342032 0.01081895 5.56620708 -0.0000302 8.34960938 -0.01269531 C21.69769146 -0.02437265 34.36629464 0.91035717 47.26367188 4.63574219 C47.99199219 4.83167969 48.7203125 5.02761719 49.47070312 5.22949219 C54.61280459 6.67771328 59.19940524 8.71461694 63.88867188 11.26074219 C64.68917969 11.69257812 65.4896875 12.12441406 66.31445312 12.56933594 C70.38756414 15.00645619 72.71450215 16.91240273 74.88867188 21.26074219 C75.40429688 21.77636719 75.91992188 22.29199219 76.45117188 22.82324219 C80.1284379 26.50050821 80.23808637 30.33896077 80.32617188 35.38574219 C80.32106593 42.4259957 78.81617262 47.43183236 74.88867188 53.26074219 C74.44265625 53.93234375 73.99664063 54.60394531 73.53710938 55.29589844 C68.13106991 62.89153489 61.55585669 69.7690096 54.88867188 76.26074219 C54.14423828 77.03804687 54.14423828 77.03804687 53.38476562 77.83105469 C49.30828325 82.04941 44.9477225 85.70811532 40.33398438 89.32714844 C37.10323663 91.88181319 33.99636287 94.55840219 30.88867188 97.26074219 C37.91988739 97.58343082 44.27826743 96.35523917 51.13867188 94.88574219 C63.92364431 92.20074187 76.65839041 90.10853114 89.62762451 88.53869629 C92.85538335 88.14190283 96.08022538 87.72335706 99.30532837 87.30560303 C102.79895835 86.85469774 106.2938169 86.41376556 109.78881836 85.97363281 C111.56593299 85.74809162 113.34263076 85.51924148 115.11889648 85.28710938 C126.11542332 83.85308714 136.79011534 82.89914303 147.88867188 83.26074219 C148.21867187 84.58074219 148.54867188 85.90074219 148.88867188 87.26074219 C145.01111403 89.03545496 141.69061957 89.61142034 137.44726562 89.90136719 C135.51439697 90.04844116 135.51439697 90.04844116 133.54248047 90.19848633 C132.51365753 90.27391159 132.51365753 90.27391159 131.46405029 90.3508606 C114.43818976 91.6241424 97.77222676 94.239458 80.97554016 97.2311554 C76.40950979 98.03227558 71.84087296 98.68164291 67.24023438 99.26074219 C59.86874511 100.2071149 52.65141529 101.63541663 45.38867188 103.19824219 C42.84848839 103.73945745 40.30812557 104.27983176 37.76757812 104.81933594 C36.57406738 105.07312012 35.38055664 105.3269043 34.15087891 105.58837891 C31.47281616 106.14034604 28.79861725 106.64933938 26.10351562 107.10839844 C15.13648193 109.00239495 6.382314 112.99638883 -2.33789062 119.90136719 C-4.43936526 121.51218916 -6.67755498 122.79582722 -8.99804688 124.06542969 C-11.91844334 125.71726207 -14.76024247 127.49315766 -17.61132812 129.26074219 C-30.59640275 137.26074219 -30.59640275 137.26074219 -34.11132812 137.26074219 C-34.11132812 137.92074219 -34.11132812 138.58074219 -34.11132812 139.26074219 C-38.34840485 141.52811658 -42.58885112 143.78904905 -46.83154297 146.04589844 C-48.33808403 146.84869865 -49.84363828 147.65335379 -51.34814453 148.45996094 C-68.86827028 157.85266336 -86.75878854 166.35645728 -104.96923828 174.32275391 C-107.12674888 175.2674947 -109.2813896 176.21853931 -111.43554688 177.17089844 C-118.60977761 180.3362198 -125.80959236 183.39975543 -133.11132812 186.26074219 C-134.35462891 186.76734375 -134.35462891 186.76734375 -135.62304688 187.28417969 C-140.29709075 189.18815468 -144.97842053 190.92794813 -149.77929688 192.48339844 C-152.32901239 193.33330361 -154.84232196 194.26136146 -157.36132812 195.19824219 C-163.54704185 197.4546121 -169.78900596 199.42408994 -176.11132812 201.26074219 C-177.33722656 201.63714844 -178.563125 202.01355469 -179.82617188 202.40136719 C-187.31162098 204.58525263 -194.49174993 205.68214137 -202.29882812 205.82324219 C-203.10078613 205.84999023 -203.90274414 205.87673828 -204.72900391 205.90429688 C-208.97002932 205.87728971 -210.65665712 205.60687882 -214.13867188 202.95605469 C-216.11132812 200.26074219 -216.11132812 200.26074219 -216.48632812 196.57324219 C-215.10070464 189.48369291 -208.57880393 184.16275478 -203.11132812 179.94824219 C-199.91351312 178.14947125 -196.71638963 176.35136974 -193.49414062 174.59667969 C-191.18946574 173.30455049 -188.97079873 171.91993793 -186.73632812 170.51074219 C-179.62699991 166.20976446 -172.02956174 162.85631169 -164.49902344 159.37011719 C-162.2471852 158.32386433 -160.00230691 157.26424984 -157.75976562 156.19824219 C-156.43947669 155.5731924 -155.11916551 154.94818961 -153.79882812 154.32324219 C-152.64769531 153.77796875 -151.4965625 153.23269531 -150.31054688 152.67089844 C-147.27702685 151.33377911 -144.26116886 150.28617672 -141.11132812 149.26074219 C-138.81371684 148.35907913 -136.52243333 147.44119201 -134.23632812 146.51074219 C-128.65629281 144.25776688 -123.05547516 142.06903298 -117.42382812 139.94824219 C-116.75303223 139.69397461 -116.08223633 139.43970703 -115.39111328 139.17773438 C-112.32832008 138.03065004 -109.31233376 136.94956618 -106.11132812 136.26074219 C-105.964375 135.6175 -105.81742188 134.97425781 -105.66601562 134.31152344 C-104.01762533 127.67059473 -101.60983583 121.81056441 -98.65429688 115.65136719 C-96.57334247 111.07853574 -94.96137227 106.38626488 -93.31445312 101.64355469 C-91.45811838 96.42411998 -89.28933327 91.35256504 -87.11132812 86.26074219 C-78.95535361 67.17576181 -71.86457275 47.88590839 -65.11132812 28.26074219 C-62.77838037 28.21832496 -60.44430246 28.21981281 -58.11132812 28.26074219 C-57.11132812 29.26074219 -57.11132812 29.26074219 -56.91601562 32.85058594 C-56.97425429 37.07288947 -57.89083123 40.83803725 -59.23632812 44.82324219 C-59.46223633 45.51595215 -59.68814453 46.20866211 -59.92089844 46.92236328 C-62.07497323 53.40079477 -64.57127835 59.73113968 -67.18994141 66.03515625 C-68.26624828 68.63494783 -69.32786459 71.24052592 -70.38867188 73.84667969 C-78.4971944 93.75031212 -78.4971944 93.75031212 -81.92382812 101.26074219 C-83.74801659 105.3407973 -85.40719198 109.47981342 -87.04882812 113.63574219 C-89.53972218 119.9386631 -92.22859923 126.12537671 -95.11132812 132.26074219 C-94.44488281 132.00679687 -93.7784375 131.75285156 -93.09179688 131.49121094 C-87.33172699 129.34024778 -81.59298341 127.52730391 -75.64648438 125.97167969 C-73.47711746 125.36332101 -71.44863314 124.66177077 -69.36132812 123.82324219 C-64.88909313 122.05837259 -60.24820735 120.93885173 -55.60058594 119.74365234 C-52.34882095 118.89624725 -49.2112177 117.99666085 -46.11132812 116.69824219 C-42.61543843 115.29690474 -39.12410047 114.63629283 -35.42382812 113.94824219 C-28.03850057 112.55241528 -20.90609446 110.5740049 -13.6965332 108.46166992 C-7.99080309 106.79023094 -2.27952759 105.24621706 3.51367188 103.90136719 C6.06991961 103.21185299 8.45068161 102.28818094 10.88867188 101.26074219 C10.88867188 100.60074219 10.88867188 99.94074219 10.88867188 99.26074219 C12.46289062 98.11230469 12.46289062 98.11230469 14.57617188 96.88574219 C17.9351156 94.92477693 20.87218959 92.71695659 23.88867188 90.26074219 C24.88640625 89.50019531 25.88414062 88.73964844 26.91210938 87.95605469 C53.64711277 67.87630917 53.64711277 67.87630917 68.88867188 39.26074219 C69.63977968 32.92997637 68.46753616 29.75783971 64.88476562 24.53417969 C58.95358048 17.77889641 53.38899277 14.93476945 44.76367188 12.44824219 C43.29994141 12.00061523 43.29994141 12.00061523 41.80664062 11.54394531 C9.93333171 1.91237925 -28.06361167 7.02853701 -60.15722656 13.47680664 C-62.88509316 14.02412369 -65.61648256 14.54082078 -68.35449219 15.03491211 C-75.3828443 16.30412138 -82.29586136 17.64969796 -89.11132812 19.82324219 C-90.4649876 20.24285064 -91.81915393 20.66082756 -93.17382812 21.07714844 C-94.15041382 21.37890991 -94.15041382 21.37890991 -95.14672852 21.68676758 C-97.1226494 22.26404979 -99.10466231 22.75450531 -101.10742188 23.22949219 C-105.25731379 24.24340351 -109.19107627 25.66463163 -113.17382812 27.19824219 C-113.84220703 27.45025391 -114.51058594 27.70226562 -115.19921875 27.96191406 C-122.49563482 30.73441036 -129.60309857 33.8985684 -136.67382812 37.19824219 C-137.40279297 37.53275391 -138.13175781 37.86726563 -138.8828125 38.21191406 C-143.23833622 40.24658266 -147.12483958 42.55386725 -151.11132812 45.26074219 C-152.08199219 45.73253906 -153.05265625 46.20433594 -154.05273438 46.69042969 C-162.78907399 51.17575347 -173.89355093 59.23809792 -178.11132812 68.26074219 C-178.61672714 71.68782887 -178.56224253 74.8323612 -178.11132812 78.26074219 C-168.73923227 83.06405469 -159.39689532 84.08009593 -149.04882812 84.94824219 C-147.59626534 85.0781119 -146.14379002 85.20896367 -144.69140625 85.34082031 C-141.16564939 85.65878484 -137.63889618 85.96345911 -134.11132812 86.26074219 C-133.54882812 88.19824219 -133.54882812 88.19824219 -133.11132812 90.26074219 C-135.72081281 92.87022687 -143.03442321 91.49073954 -146.7722168 91.50097656 C-148.87721639 91.51053063 -150.9811739 91.54146093 -153.0859375 91.57324219 C-163.40340246 91.65623308 -174.12693706 91.24920515 -182.73632812 84.88574219 C-183.93128906 84.03882813 -183.93128906 84.03882813 -185.15039062 83.17480469 C-188.25685921 80.14259432 -188.99699934 77.25159166 -189.48632812 73.01074219 C-188.74403367 65.5877976 -185.72775742 60.14459375 -180.11132812 55.26074219 C-179.38816406 54.57109375 -178.665 53.88144531 -177.91992188 53.17089844 C-172.37734011 47.95792247 -166.7624614 43.92144345 -160.11132812 40.26074219 C-159.01433594 39.62523437 -157.91734375 38.98972656 -156.78710938 38.33496094 C-150.38789888 34.67469872 -143.72942114 31.50166834 -137.11132812 28.26074219 C-135.96535156 27.69613281 -134.819375 27.13152344 -133.63867188 26.54980469 C-127.30544468 23.51785874 -121.02704583 21.14259468 -114.28320312 19.19042969 C-111.25049272 18.30153181 -108.28245922 17.30098114 -105.29882812 16.26074219 C-87.96301141 10.45188214 -69.68037159 7.08531685 -51.67382812 4.13574219 C-50.7232251 3.9771875 -49.77262207 3.81863281 -48.79321289 3.65527344 C-32.55554241 1.07739262 -16.43292264 -0.07580837 0 0 Z M-23.23632812 118.07324219 C-27.06786036 119.32357627 -30.76139335 120.47092035 -34.73632812 121.13574219 C-42.307073 122.51897779 -49.58174876 125.17769731 -56.88867188 127.54541016 C-59.72517973 128.45830207 -62.57285203 129.33169551 -65.42382812 130.19824219 C-66.42285156 130.50761719 -67.421875 130.81699219 -68.45117188 131.13574219 C-70.52861664 131.77427377 -72.60734012 132.40876622 -74.68994141 133.03027344 C-77.6258338 133.90758599 -80.55608257 134.80226834 -83.48632812 135.69824219 C-84.42645752 135.97466553 -85.36658691 136.25108887 -86.33520508 136.53588867 C-95.53457191 139.35925558 -95.53457191 139.35925558 -102.16162109 145.98510742 C-103.01620484 147.88619626 -103.71058106 149.78105986 -104.36132812 151.76074219 C-106.85401302 158.83268528 -106.85401302 158.83268528 -108.78320312 162.04199219 C-110.36813157 164.25877525 -110.36813157 164.25877525 -110.11132812 167.26074219 C-105.00243247 166.0650432 -101.03163521 164.18282433 -96.50585938 161.55371094 C-93.26492085 159.80370987 -89.89334263 158.54590772 -86.45898438 157.22949219 C-84.32581243 156.34924819 -82.40769538 155.36992218 -80.42382812 154.19824219 C-77.69608656 152.6027707 -75.03863117 151.38594804 -72.13842773 150.16430664 C-68.24245731 148.42770703 -64.50054881 146.38811517 -60.73632812 144.38574219 C-59.5375 143.75345703 -59.5375 143.75345703 -58.31445312 143.10839844 C-50.82180044 139.14383949 -43.36442184 135.15217348 -36.22851562 130.56933594 C-33.23541616 128.71935749 -30.17134976 126.99662481 -27.11132812 125.26074219 C-25.8623801 124.5476384 -24.6136816 123.83409738 -23.36523438 123.12011719 C-19.94726562 121.16699219 -16.52929688 119.21386719 -13.11132812 117.26074219 C-16.95003114 115.80500216 -19.43825595 116.77823686 -23.23632812 118.07324219 Z M-112.11132812 146.26074219 C-121.46123798 149.4184363 -130.49162918 152.75555901 -139.39648438 157.02636719 C-142.11132812 158.26074219 -142.11132812 158.26074219 -145.67382812 159.26074219 C-149.97947937 160.51329528 -153.70950215 162.45355195 -157.68945312 164.50292969 C-160.06559023 165.72354806 -162.44270152 166.91659913 -164.84570312 168.08105469 C-172.12533741 171.62227736 -179.24192306 175.36950723 -186.23632812 179.44824219 C-186.93459717 179.85204102 -187.63286621 180.25583984 -188.35229492 180.671875 C-192.63503731 183.20802992 -196.33742009 186.01876481 -200.11132812 189.26074219 C-201.10132813 189.75574219 -201.10132813 189.75574219 -202.11132812 190.26074219 C-203.16485655 192.57040067 -204.16851908 194.90371958 -205.11132812 197.26074219 C-203.23009926 199.61275976 -203.23009926 199.61275976 -200.11914062 199.26464844 C-189.26890351 198.03117078 -179.70876845 194.95008076 -169.5144043 191.11767578 C-167.07514532 190.24783945 -164.62468471 189.49703237 -162.13867188 188.77246094 C-157.00551363 187.26830996 -152.03609881 185.43884485 -147.04882812 183.51074219 C-146.15067383 183.1658374 -145.25251953 182.82093262 -144.32714844 182.46557617 C-138.31435374 180.14418747 -132.32622396 177.76503498 -126.36132812 175.32324219 C-125.64066162 175.02901367 -124.91999512 174.73478516 -124.17749023 174.43164062 C-120.90381045 173.23794597 -120.90381045 173.23794597 -118.11132812 171.26074219 C-117.83716786 169.61876061 -117.59254509 167.97181917 -117.36132812 166.32324219 C-116.47729038 161.06013376 -114.71926495 157.03825671 -112.03710938 152.45214844 C-110.95686662 149.89511811 -111.15143634 148.81463608 -112.11132812 146.26074219 Z " fill="#ffffff" transform="translate(659.111328125,99.7392578125)"/>
<path d="M0 0 C1.60000351 0.00282486 1.60000351 0.00282486 3.23233032 0.00570679 C34.15668354 0.06951001 64.72448459 1.1883247 95.3125 6.1875 C96.30789795 6.34968018 97.3032959 6.51186035 98.32885742 6.67895508 C102.4913564 7.40135408 105.95463506 8.07772198 109.6875 10.125 C109.6875 11.775 109.6875 13.425 109.6875 15.125 C105.09654956 16.5161971 102.21060864 15.45076406 97.6875 14.125 C72.69073861 9.24511166 47.64108945 8.23615189 22.24407959 8.13677979 C19.75849166 8.1253271 17.27310839 8.10595119 14.78759766 8.08349609 C5.32855998 8.00054374 -4.12691868 8.00452952 -13.5859375 8.08789062 C-16.7136438 8.11529271 -19.84092635 8.12921765 -22.96875 8.13085938 C-55.62002889 8.16949615 -87.88752408 11.61126549 -120.3125 15.125 C-119.3225 16.115 -119.3225 16.115 -118.3125 17.125 C-117.19561282 27.17698466 -120.55955468 36.56576762 -123.3125 46.125 C-123.66957031 47.383125 -124.02664063 48.64125 -124.39453125 49.9375 C-125.0367973 52.18926942 -125.68501735 54.43935108 -126.33984375 56.6875 C-127.05187379 59.20391138 -127.73101919 61.71719041 -128.37890625 64.25 C-128.55607178 64.93803711 -128.7332373 65.62607422 -128.91577148 66.33496094 C-129.41033278 68.26877199 -129.89680932 70.20464541 -130.3828125 72.140625 C-131.3125 75.125 -131.3125 75.125 -133.3125 77.125 C-134.19010425 79.49424184 -134.99358911 81.8425994 -135.75 84.25 C-138.37454588 92.46308995 -141.40810496 100.42812426 -144.75 108.375 C-147.21374765 114.28477799 -149.39869198 120.20663099 -151.359375 126.3046875 C-154.23076176 134.80116799 -158.10784285 142.90257448 -161.90234375 151.015625 C-163.17309674 153.81761774 -164.32897722 156.63088222 -165.4375 159.5 C-166.7925449 162.98280134 -168.37668137 166.07998179 -170.30859375 169.26953125 C-171.95508993 172.31266621 -173.09499612 175.54939931 -174.28515625 178.79296875 C-175.36119836 181.23554343 -176.70618956 183.00194631 -178.3125 185.125 C-179.3481601 187.08574191 -180.34607182 189.06672514 -181.3125 191.0625 C-184.04127005 196.68348206 -186.75031572 201.70673498 -190.9375 206.375 C-191.54851563 207.06078125 -192.15953125 207.7465625 -192.7890625 208.453125 C-193.61417052 209.35862816 -194.44626123 210.25876123 -195.3125 211.125 C-198.8125 211.25 -198.8125 211.25 -202.3125 211.125 C-204.00669887 209.43080113 -203.68574735 207.45724877 -203.8125 205.125 C-203.76405107 196.97589014 -200.49401227 190.4120173 -197.19677734 183.12792969 C-195.99159841 180.39814284 -194.96369274 177.61382614 -193.9375 174.8125 C-190.77873555 166.49720948 -187.02620918 158.44196069 -183.33007812 150.35546875 C-182.06194615 147.57580136 -180.81363938 144.78734848 -179.5625 142 C-175.52942172 133.16301619 -170.99669493 124.63082712 -166.3125 116.125 C-165.35400031 114.3542567 -164.39566793 112.58342284 -163.4375 110.8125 C-159.83009724 104.19253216 -156.07120213 97.65979938 -152.3125 91.125 C-151.6525 91.125 -150.9925 91.125 -150.3125 91.125 C-150.20164062 90.3825 -150.09078125 89.64 -149.9765625 88.875 C-149.28327035 86.00395487 -148.37900776 84.51301095 -146.6875 82.125 C-135.01630876 63.31674937 -131.2736981 37.44438589 -126.3125 16.125 C-141.4197842 16.46172369 -156.16390134 17.77718099 -171.10375977 20.02636719 C-174.27134533 20.50321331 -177.44096126 20.96391959 -180.61132812 21.421875 C-195.53038977 23.59741283 -210.38119964 25.94121082 -225 29.6875 C-225.83982422 29.89568359 -226.67964844 30.10386719 -227.54492188 30.31835938 C-231.61375567 31.3460379 -235.42250413 32.53561736 -239.3125 34.125 C-242.125 34.25 -242.125 34.25 -244.3125 34.125 C-244.6425 32.475 -244.9725 30.825 -245.3125 29.125 C-238.87082478 24.78925707 -232.06645673 23.29251049 -224.5625 21.5625 C-223.58577835 21.33364105 -223.58577835 21.33364105 -222.58932495 21.10015869 C-212.8562366 18.82118439 -203.15728529 16.82387366 -193.24609375 15.51708984 C-190.44266939 15.14239781 -187.64318761 14.7441847 -184.84367371 14.34146118 C-146.12389358 8.80029894 -107.08368429 4.94321049 -68.0625 2.3125 C-67.21548523 2.25519714 -66.36847046 2.19789429 -65.49578857 2.13885498 C-43.6703204 0.68833816 -21.87359821 -0.05913701 0 0 Z M-168.3125 138.125 C-167.3125 140.125 -167.3125 140.125 -167.3125 140.125 Z M-169.3125 140.125 C-171.78073846 143.46901469 -171.78073846 143.46901469 -172 147.4375 C-171.773125 147.994375 -171.54625 148.55125 -171.3125 149.125 C-169.68742804 146.2918838 -169.68742804 146.2918838 -168.3125 143.125 C-168.6425 142.135 -168.9725 141.145 -169.3125 140.125 Z M-173.3125 150.125 C-174.34822896 151.86622549 -175.3656252 153.61836595 -176.375 155.375 C-176.94347656 156.34953125 -177.51195312 157.3240625 -178.09765625 158.328125 C-179.53811487 160.98519275 -179.53811487 160.98519275 -178.99609375 163.484375 C-178.77050781 164.02578125 -178.54492188 164.5671875 -178.3125 165.125 C-177.27959159 163.19391037 -176.26151328 161.254882 -175.25 159.3125 C-174.68152344 158.23355469 -174.11304688 157.15460938 -173.52734375 156.04296875 C-171.94334211 153.13819757 -171.94334211 153.13819757 -173.3125 150.125 Z M-180.3125 165.125 C-180.9725 167.435 -181.6325 169.745 -182.3125 172.125 C-181.6525 171.795 -180.9925 171.465 -180.3125 171.125 C-179.65477572 168.09565509 -179.65477572 168.09565509 -179.3125 165.125 C-179.6425 165.125 -179.9725 165.125 -180.3125 165.125 Z M-183.3125 172.125 C-182.3125 175.125 -182.3125 175.125 -182.3125 175.125 Z " fill="#ffffff" transform="translate(1063.3125,113.875)"/>
<path d="M0 0 C0.78375 0.04125 1.5675 0.0825 2.375 0.125 C3.24250333 6.48669105 0.92265487 10.50058944 -2.0390625 16.0625 C-3.46673805 18.81939072 -4.64567711 21.53975675 -5.75 24.4375 C-6.89223669 27.41207472 -8.12033627 30.13692527 -9.75 32.875 C-11.51194823 35.92904359 -12.63793038 38.75251213 -13.625 42.125 C-12.7175 42.0425 -11.81 41.96 -10.875 41.875 C-7.625 42.125 -7.625 42.125 -5.375 43.5 C-2.77549642 47.39925538 -2.28978867 51.54145707 -1.625 56.125 C-1.068125 55.34125 -0.51125 54.5575 0.0625 53.75 C4.31718349 49.47093437 10.64518144 49.40725707 16.375 49.125 C19.33053664 49.32605691 20.65201229 49.76350615 23.375 51.125 C25.3125 53.75 25.3125 53.75 26.375 56.125 C26.81328125 55.70347656 27.2515625 55.28195313 27.703125 54.84765625 C33.44058121 49.89152029 38.8273306 48.62529223 46.375 49.125 C49.46305303 50.1117673 51.07454213 50.82454213 53.375 53.125 C53.87920821 56.49029668 53.83446046 59.75562327 53.375 63.125 C51.5 65.5 51.5 65.5 49.375 67.125 C49.08753906 67.77210938 48.80007813 68.41921875 48.50390625 69.0859375 C46.41603376 72.85711203 42.31760585 73.86051293 38.375 75.125 C33.14357431 75.74567762 29.78590019 75.03218422 25.375 72.125 C23.5 69.4375 23.5 69.4375 22.375 67.125 C21.92769531 67.53492188 21.48039062 67.94484375 21.01953125 68.3671875 C16.49185557 72.40251466 13.22387356 74.80248601 7.0625 75.5 C2.60810572 75.04701075 -1.01339428 73.81502357 -4.625 71.125 C-5.85546875 68.984375 -5.85546875 68.984375 -6.625 67.125 C-7.06070312 67.60710937 -7.49640625 68.08921875 -7.9453125 68.5859375 C-11.54237211 72.40100072 -14.26516846 75.23169474 -19.625 76.125 C-23.85330914 75.83833497 -26.08094712 75.48770192 -29.625 73.125 C-29.955 73.455 -30.285 73.785 -30.625 74.125 C-33.0625 74.3125 -33.0625 74.3125 -35.625 74.125 C-36.285 73.465 -36.945 72.805 -37.625 72.125 C-40.46485865 72.14212243 -40.46485865 72.14212243 -43.625 72.5625 C-49.42539139 73.22480431 -49.42539139 73.22480431 -51.625 72.125 C-51.625 68.825 -51.625 65.525 -51.625 62.125 C-56.25159555 64.16930966 -59.11584298 66.52811405 -62.625 70.125 C-67.77139175 74.1992268 -67.77139175 74.1992268 -71.5 73.875 C-72.551875 73.50375 -72.551875 73.50375 -73.625 73.125 C-74.625 68.375 -74.625 68.375 -74.625 66.125 C-75.42164063 66.7746875 -76.21828125 67.424375 -77.0390625 68.09375 C-78.10877533 68.93826013 -79.17912174 69.78196818 -80.25 70.625 C-80.77207031 71.05425781 -81.29414062 71.48351562 -81.83203125 71.92578125 C-85.54354716 74.81251585 -87.95287697 75.63009438 -92.625 75.125 C-92.955 74.135 -93.285 73.145 -93.625 72.125 C-94.49125 72.62 -95.3575 73.115 -96.25 73.625 C-99.88609537 75.24104239 -101.71508091 75.77665318 -105.625 75.125 C-107.8884682 73.63669214 -109.64792217 72.00793127 -111.625 70.125 C-112.15609375 70.53492188 -112.6871875 70.94484375 -113.234375 71.3671875 C-113.94078125 71.90601563 -114.6471875 72.44484375 -115.375 73 C-116.07109375 73.53367187 -116.7671875 74.06734375 -117.484375 74.6171875 C-122.40031836 78.07987753 -125.64950302 78.78894411 -131.625 78.125 C-133.75 76.3125 -133.75 76.3125 -134.625 73.125 C-134.18843242 68.30163235 -133.15478958 63.71436873 -131.625 59.125 C-133.605 59.62 -133.605 59.62 -135.625 60.125 C-136.285 58.475 -136.945 56.825 -137.625 55.125 C-144.33872933 58.82266311 -148.85461571 62.99118051 -153.1171875 69.3515625 C-154.53264866 71.42708327 -155.85463827 73.34102011 -157.625 75.125 C-161 75.625 -161 75.625 -163.625 75.125 C-164.296875 73.42578125 -164.296875 73.42578125 -164.625 71.125 C-163.515625 68.79296875 -163.515625 68.79296875 -161.875 66.3125 C-160.00798756 63.38292519 -158.28113805 60.60663474 -157 57.375 C-155.18073873 53.07492791 -152.93106576 49.43106576 -149.625 46.125 C-147.8125 46.4375 -147.8125 46.4375 -145.625 47.125 C-141.32612721 48.26293692 -137.33365382 48.09474807 -132.9296875 47.8671875 C-130.14289657 48.17893021 -129.34502604 48.97777795 -127.625 51.125 C-126.635 49.805 -125.645 48.485 -124.625 47.125 C-122.975 47.455 -121.325 47.785 -119.625 48.125 C-117.8778471 53.18675154 -119.64224515 56.73560683 -121.5625 61.4375 C-121.85318359 62.17806641 -122.14386719 62.91863281 -122.44335938 63.68164062 C-123.15921047 65.50060651 -123.89058735 67.3134488 -124.625 69.125 C-120.67286755 65.92842228 -116.99321664 62.61557319 -113.66796875 58.765625 C-113.15459961 58.17740967 -112.64123047 57.58919434 -112.11230469 56.9831543 C-111.09210502 55.80111766 -110.0882044 54.60478265 -109.10253906 53.39379883 C-106.31432863 50.18078529 -105.06417985 49.16798733 -100.75390625 48.74609375 C-99.72136719 48.87113281 -98.68882812 48.99617188 -97.625 49.125 C-97.03255479 55.79000865 -99.14177155 60.99452975 -101.625 67.125 C-92.98299139 63.34219908 -88.78416483 59.5447727 -84.625 51.125 C-83.965 50.135 -83.305 49.145 -82.625 48.125 C-79.5 47.9375 -79.5 47.9375 -76.625 48.125 C-75.76643345 51.5592662 -75.64908417 53.74182513 -76.625 57.125 C-75.90054688 56.691875 -75.17609375 56.25875 -74.4296875 55.8125 C-73.46289062 55.255625 -72.49609375 54.69875 -71.5 54.125 C-70.54867187 53.568125 -69.59734375 53.01125 -68.6171875 52.4375 C-65.35984878 51.00869346 -63.1412171 50.87458691 -59.625 51.125 C-58.635 53.6 -58.635 53.6 -57.625 56.125 C-56.81675781 55.6196875 -56.00851562 55.114375 -55.17578125 54.59375 C-54.10714844 53.9440625 -53.03851562 53.294375 -51.9375 52.625 C-50.35388672 51.65046875 -50.35388672 51.65046875 -48.73828125 50.65625 C-45.62952342 49.12722482 -44.01680138 48.60227054 -40.625 49.125 C-39.965 49.785 -39.305 50.445 -38.625 51.125 C-38.98322561 56.14015859 -40.78942091 60.49614839 -42.625 65.125 C-39.05572369 63.45933772 -36.33546962 61.9709931 -33.625 59.125 C-32.965 59.125 -32.305 59.125 -31.625 59.125 C-31.295 57.97 -30.965 56.815 -30.625 55.625 C-28.34012816 48.73774346 -24.87288392 42.39030162 -21.56347656 35.95361328 C-20.39973356 33.68607033 -19.26018603 31.40695559 -18.125 29.125 C-9.4921875 11.859375 -9.4921875 11.859375 -8.53417969 9.95117188 C-7.67725004 8.22994906 -6.84180683 6.49807698 -6.0078125 4.765625 C-3.60202644 0.17152507 -3.60202644 0.17152507 0 0 Z M-20.625 55.125 C-22.53322506 57.65590902 -23.87677997 60.03399265 -24.625 63.125 C-24.04418824 66.54691312 -24.04418824 66.54691312 -22.625 69.125 C-20.51402406 69.34581901 -20.51402406 69.34581901 -19.00390625 67.69140625 C-14.00906632 62.18096994 -10.625 56.74628846 -10.625 49.125 C-14.62852553 49.125 -17.81345056 52.51269422 -20.625 55.125 Z M8.375 58.125 C4.48980788 62.56279815 4.48980788 62.56279815 3.375 68.125 C8.61708995 67.71385569 11.71060611 66.99878783 15.375 63.125 C16.72272903 60.00366256 16.72272903 60.00366256 17.375 57.125 C13.59670588 56.07547386 11.57739088 55.72320684 8.375 58.125 Z M35.375 59.125 C32.83693303 62.53826248 32.375 63.76412344 32.375 68.125 C36.50473628 67.55760132 36.50473628 67.55760132 40.375 66.125 C40.375 65.465 40.375 64.805 40.375 64.125 C41.035 64.125 41.695 64.125 42.375 64.125 C43.365 61.815 44.355 59.505 45.375 57.125 C40.96185734 55.73801231 38.99607167 56.26625921 35.375 59.125 Z M-3.625 57.125 C-2.625 59.125 -2.625 59.125 -2.625 59.125 Z M-5.625 63.125 C-4.625 65.125 -4.625 65.125 -4.625 65.125 Z " fill="#ffffff" transform="translate(1086.625,171.875)"/>
<path d="M0 0 C1.0326802 2.78823655 1.04509293 3.8677274 0.0625 6.75 C-0.288125 7.4925 -0.63875 8.235 -1 9 C-1.66 9 -2.32 9 -3 9 C-3.14695312 10.28197266 -3.14695312 10.28197266 -3.296875 11.58984375 C-4.0781786 15.37916621 -5.43240302 18.15253002 -7.25 21.5625 C-10.08119497 27.02065845 -12.4644231 32.49638623 -14.6015625 38.26953125 C-16.43025401 43.14774463 -18.37077407 47.97838049 -20.3125 52.8125 C-20.85571899 54.16722412 -20.85571899 54.16722412 -21.40991211 55.54931641 C-22.27249263 57.69985962 -23.13584805 59.85008786 -24 62 C-20.19507144 60.87997976 -18.26008448 60.26642801 -15.4375 57.375 C-13 55 -13 55 -10.1875 54.6875 C-9.465625 54.790625 -8.74375 54.89375 -8 55 C-7.3046875 56.74609375 -7.3046875 56.74609375 -7 59 C-9.80967366 63.54608689 -14.03869078 67.94287179 -19 70 C-23.52153504 71.00786773 -27.48721154 71.26922175 -32 70 C-32.99 66.04 -32.99 66.04 -34 62 C-34.4846875 62.53109375 -34.969375 63.0621875 -35.46875 63.609375 C-40.98993502 69.4278546 -45.69398468 73.3540977 -53.75 74.5625 C-57 74 -57 74 -59.375 71.6875 C-61 69 -61 69 -62 66 C-62.515625 66.598125 -63.03125 67.19625 -63.5625 67.8125 C-68.07419393 71.86145609 -73.0080378 73.59282927 -79.0078125 73.359375 C-82.61270033 72.70908151 -85.00517853 71.09637503 -88 69 C-88.66 68.01 -89.32 67.02 -90 66 C-90.86625 66.78375 -91.7325 67.5675 -92.625 68.375 C-96.64062716 71.69471051 -100.25719491 72.80987581 -105.4375 73.375 C-110.16197392 72.87768696 -112.23596934 71.93594391 -116 69 C-116.875 65.3125 -116.875 65.3125 -117 62 C-117.33 61.67 -117.66 61.34 -118 61 C-118.42410156 61.50789063 -118.84820313 62.01578125 -119.28515625 62.5390625 C-129.63876408 74.69032972 -129.63876408 74.69032972 -135.8125 75.5 C-139 75 -139 75 -141 73 C-141.625 70.375 -141.625 70.375 -142 68 C-142.50789062 68.433125 -143.01578125 68.86625 -143.5390625 69.3125 C-149.13055366 73.83595352 -149.13055366 73.83595352 -153.3125 74.625 C-156 74 -156 74 -157.875 72 C-158.24625 71.34 -158.6175 70.68 -159 70 C-160.051875 70.33 -161.10375 70.66 -162.1875 71 C-167.70011148 72.44593088 -167.70011148 72.44593088 -171 72 C-173.3125 70.625 -173.3125 70.625 -175 69 C-175 68.34 -175 67.68 -175 67 C-175.79664063 67.433125 -176.59328125 67.86625 -177.4140625 68.3125 C-178.47367188 68.869375 -179.53328125 69.42625 -180.625 70 C-181.66914062 70.556875 -182.71328125 71.11375 -183.7890625 71.6875 C-187.17253427 73.07052496 -189.38599661 73.33136994 -193 73 C-193.66 72.67 -194.32 72.34 -195 72 C-195 71.34 -195 70.68 -195 70 C-195.66 70 -196.32 70 -197 70 C-197.6671676 63.59519108 -196.01679787 59.97691053 -192 55 C-186.75867064 49.16576007 -180.73783056 45.55937959 -173 44 C-169.4375 44.6875 -169.4375 44.6875 -167 46 C-166.34 46.33 -165.68 46.66 -165 47 C-164.875 52.75 -164.875 52.75 -166 55 C-166.33926947 57.33247761 -166.67240066 59.66585471 -167 62 C-167.33 62.99 -167.66 63.98 -168 65 C-164.38763446 63.65826423 -161.1009279 62.30568994 -158 60 C-156.90069462 57.16978903 -156.90069462 57.16978903 -156.4375 54 C-155.45037553 48.44487196 -155.45037553 48.44487196 -153.08203125 46.10546875 C-150.35048239 44.65513418 -148.89318568 45.11597104 -146 46 C-146.47986031 51.56890517 -147.29915181 56.67067568 -149 62 C-148.34 62 -147.68 62 -147 62 C-146.74089844 61.43539062 -146.48179687 60.87078125 -146.21484375 60.2890625 C-144.8749234 57.76432512 -143.31652673 55.6307161 -141.5625 53.375 C-140.96566406 52.59898437 -140.36882813 51.82296875 -139.75390625 51.0234375 C-137.52050119 48.44681429 -135.86660628 47.10568369 -132.4375 46.6875 C-131.2309375 46.8421875 -131.2309375 46.8421875 -130 47 C-127.49643268 50.75535098 -128.0391408 51.86889414 -128.875 56.1875 C-129.07867188 57.27417969 -129.28234375 58.36085937 -129.4921875 59.48046875 C-129.65976562 60.31191406 -129.82734375 61.14335937 -130 62 C-125.1178757 55.88184502 -125.1178757 55.88184502 -120.6875 49.4375 C-120.130625 48.633125 -119.57375 47.82875 -119 47 C-118.34 47 -117.68 47 -117 47 C-116.690625 45.9171875 -116.690625 45.9171875 -116.375 44.8125 C-114.49082941 40.9585147 -112.55382473 39.41660082 -109 37 C-106.625 37.1875 -106.625 37.1875 -105 38 C-105.41474367 43.28798182 -106.35224614 46.11690718 -110 50 C-109.34 49.67 -108.68 49.34 -108 49 C-94.78395624 46.07201459 -94.78395624 46.07201459 -89 48 C-86.5625 51.0625 -86.5625 51.0625 -85 54 C-84.4225 53.21625 -83.845 52.4325 -83.25 51.625 C-79.18958622 47.54138386 -73.48687347 47.39970601 -68 47 C-64.58810206 47.0059753 -61.95425716 47.30021142 -59.125 49.375 C-58 51 -58 51 -57 54 C-56.278125 53.236875 -55.55625 52.47375 -54.8125 51.6875 C-49.75139934 46.85133715 -46.61213626 45.80924497 -39.625 45.625 C-35.52265532 45.25864009 -32.70940596 44.77412815 -29.81640625 41.6171875 C-28.34913157 38.80930933 -27.07901681 35.98421296 -25.89257812 33.04785156 C-24.20236586 29.16997945 -22.03052765 25.54606134 -19.9375 21.875 C-19.07872023 20.3422697 -18.22190349 18.80843764 -17.3671875 17.2734375 C-16.96209961 16.54608398 -16.55701172 15.81873047 -16.13964844 15.06933594 C-14.11913863 11.40056107 -12.17730219 7.68922931 -10.25390625 3.96875 C-7.53745557 -0.29633144 -4.65483003 -0.20688133 0 0 Z M-50 57 C-51.99050135 60.40043981 -52.22307142 63.09625011 -52 67 C-51.34 67 -50.68 67 -50 67 C-50 66.34 -50 65.68 -50 65 C-49.401875 64.71125 -48.80375 64.4225 -48.1875 64.125 C-43.98673377 61.96460594 -42.34098482 59.9991824 -40 56 C-39 55 -38 54 -37 53 C-37 52.34 -37 51.68 -37 51 C-42.85380826 50.56070898 -45.88140654 53.09427766 -50 57 Z M-182 57 C-183.93964802 59.24054807 -185.41736596 61.477677 -187 64 C-181.44007093 62.70699324 -179.52577372 60.33941381 -176 56 C-173.1875 54.625 -173.1875 54.625 -171 54 C-171.33 53.34 -171.66 52.68 -172 52 C-175.84035704 52 -179.04798614 54.71966807 -182 57 Z M-104 57 C-107.2385095 61.0570167 -107.2385095 61.0570167 -108 66 C-105.09935549 67.33824743 -105.09935549 67.33824743 -102.7734375 66.03125 C-98.15721701 63.29709921 -98.15721701 63.29709921 -95.19140625 59.0390625 C-94.86256133 56.93032694 -94.86256133 56.93032694 -95 54 C-99.39927132 54 -100.56397188 54.42297891 -104 57 Z M-76 57 C-78.44418897 59.26286616 -78.44418897 59.26286616 -80 62 C-79.86850174 64.75124253 -79.86850174 64.75124253 -79 67 C-73.88997017 65.0962634 -70.56885498 63.30361924 -67 59 C-66.13880866 56.82653432 -66.13880866 56.82653432 -66 55 C-70.43742538 53.60538059 -72.33585854 54.18142964 -76 57 Z M-116 57 C-115 59 -115 59 -115 59 Z " fill="#ffffff" transform="translate(865,174)"/>
</svg>
